<svg width="48" height="47" viewBox="0 0 48 47" fill="none" xmlns="http://www.w3.org/2000/svg">
<rect width="48" height="47" rx="12" fill="#F8F3F3"/>
<path fill-rule="evenodd" clip-rule="evenodd" d="M38.9539 23.0337C38.956 23.059 38.956 23.0843 38.9539 23.1096C38.9582 23.1389 38.9595 23.1687 38.9577 23.1983L38.958 23.2031L38.958 23.2072L38.9577 23.2112C38.9509 23.2372 38.9416 23.2626 38.9301 23.287C38.9224 23.3168 38.9116 23.3458 38.8978 23.3734C38.8932 23.3772 38.8932 23.3848 38.8932 23.3848L38.8915 23.3876C38.8279 23.4942 37.1167 26.3606 38.8609 28.5405C38.8618 28.5417 38.8629 28.5428 38.864 28.5438C38.8653 28.5449 38.8667 28.5459 38.8681 28.5468L38.8682 28.5469C38.8709 28.5488 38.8736 28.5507 38.8755 28.5534C38.9 28.5916 38.9187 28.6333 38.9308 28.677C38.9371 28.689 38.9428 28.7014 38.9477 28.7141C38.9537 28.7464 38.9563 28.7791 38.9554 28.8119C38.9581 28.8419 38.9581 28.8721 38.9554 28.9021L38.9543 28.9072L38.953 28.9116C38.9516 28.916 38.9499 28.9204 38.9481 28.9248L38.9446 28.9338C38.9435 28.9368 38.9424 28.9399 38.9416 28.9431C38.9198 29.0471 38.8622 29.1406 38.7787 29.2077C38.7756 29.2111 38.7719 29.2114 38.7682 29.2117L38.7655 29.2119C38.7636 29.2122 38.7618 29.2126 38.7602 29.2138L26.68 37.6827C26.6771 37.6856 26.6739 37.6871 26.6706 37.6878C26.668 37.6885 26.6653 37.6887 26.6625 37.6889H26.6625C26.658 37.6892 26.6535 37.6896 26.6493 37.6918C26.5758 37.7394 26.4904 37.7656 26.4025 37.7676C26.3316 37.7675 26.2615 37.752 26.1973 37.7222L9.64538 29.9886C9.5782 29.957 9.51929 29.9106 9.47321 29.8529C7.61549 27.5306 8.82297 24.7655 9.28414 23.8913C7.42795 21.2088 9.35562 18.0577 9.44247 17.9205C9.47488 17.8692 9.51719 17.8246 9.56698 17.7894C9.57236 17.7871 9.57236 17.7825 9.57236 17.7825L21.6587 9.31885C21.8011 9.22028 21.9861 9.20437 22.1437 9.27715L38.6949 17.0107C38.6983 17.0122 38.7006 17.0146 38.7032 17.0173C38.7058 17.0201 38.7087 17.0232 38.7133 17.0259C38.7179 17.0285 38.7227 17.0298 38.7275 17.0312C38.7323 17.0325 38.7371 17.0338 38.7418 17.0365C38.7968 17.0702 38.8444 17.1145 38.8816 17.1669C38.8878 17.1707 38.8878 17.176 38.8878 17.1798C38.9257 17.2379 38.9499 17.3037 38.9585 17.3723C38.9592 17.3762 38.9609 17.379 38.9628 17.3819C38.9653 17.3859 38.9681 17.3902 38.9685 17.3981C38.9689 17.4052 38.967 17.4118 38.9651 17.4183C38.9633 17.4243 38.9616 17.4303 38.9616 17.4368C38.9617 17.4911 38.9521 17.545 38.9331 17.596C38.927 17.6167 38.9195 17.6369 38.9109 17.6567C38.9084 17.6616 38.9069 17.6667 38.9054 17.6718C38.9036 17.6777 38.9019 17.6836 38.8986 17.6893L38.8976 17.6908C38.8485 17.7726 37.1143 20.6554 38.8663 22.845C38.8724 22.848 38.8724 22.8525 38.8724 22.8563C38.8914 22.8849 38.9071 22.9154 38.9193 22.9473C38.9331 22.9715 38.9446 22.9969 38.9539 23.0231V23.0337ZM26.7596 31.9311C26.5021 32.3898 25.3354 34.6879 26.5213 36.6243L37.8152 28.7126C36.8729 27.2364 37.0305 25.6427 37.3748 24.4933L26.7596 31.9311ZM10.0597 18.797L25.7393 26.1211C25.3343 26.9483 24.6525 28.7467 25.272 30.5413L10.1543 23.478C8.86457 21.7539 9.64931 19.6393 10.0597 18.797ZM26.7661 26.2288C26.5209 26.6579 25.325 28.9795 26.5209 30.9341L37.8164 23.0216C36.871 21.5447 37.0278 19.9487 37.3729 18.7985L26.7661 26.2288ZM21.9791 10.2529L37.5333 17.5209L26.3517 25.3546L24.2226 24.3598L10.7974 18.0866L21.9791 10.2529ZM10.0566 24.491C9.64925 25.3409 8.8622 27.4578 10.1604 29.1789L25.275 36.2376C24.6502 34.4445 25.3296 32.6491 25.7362 31.8151L10.0566 24.491Z" fill="#FF716B"/>
<path d="M38.9539 23.1096L38.6162 23.0817L38.613 23.1202L38.6186 23.1585L38.9539 23.1096ZM38.9539 23.0337H38.615V23.0477L38.6162 23.0616L38.9539 23.0337ZM38.9577 23.1983L38.6195 23.1785L38.6183 23.1984L38.6195 23.2183L38.9577 23.1983ZM38.958 23.2031L39.2969 23.2055L39.297 23.1943L39.2963 23.1831L38.958 23.2031ZM38.958 23.2072L39.2961 23.2295L39.2968 23.2195L39.2968 23.2096L38.958 23.2072ZM38.9577 23.2112L39.2854 23.2977L39.2937 23.266L39.2959 23.2334L38.9577 23.2112ZM38.9301 23.287L38.6237 23.1422L38.6099 23.1715L38.6018 23.2029L38.9301 23.287ZM38.8978 23.3734L39.113 23.6352L39.1686 23.5894L39.2008 23.525L38.8978 23.3734ZM38.8932 23.3848L39.1845 23.558L39.232 23.4779V23.3848H38.8932ZM38.8915 23.3876L39.1825 23.5613L39.1828 23.5608L38.8915 23.3876ZM38.8609 28.5405L39.1353 28.3416L39.1305 28.3351L39.1255 28.3288L38.8609 28.5405ZM38.864 28.5438L39.0842 28.2862L39.0839 28.286L38.864 28.5438ZM38.8681 28.5468L38.6729 28.8239L38.6772 28.8268L38.8681 28.5468ZM38.8682 28.5469L39.0635 28.27L39.0591 28.2669L38.8682 28.5469ZM38.8755 28.5534L39.1608 28.3706L39.1556 28.3625L39.15 28.3546L38.8755 28.5534ZM38.9308 28.677L38.6044 28.768L38.6139 28.8018L38.63 28.833L38.9308 28.677ZM38.9477 28.7141L39.2809 28.6522L39.275 28.6201L39.263 28.5898L38.9477 28.7141ZM38.9554 28.8119L38.6167 28.8028L38.6162 28.8225L38.6179 28.8421L38.9554 28.8119ZM38.9554 28.9021L39.2866 28.9737L39.2911 28.9532L39.2929 28.9324L38.9554 28.9021ZM38.9543 28.9072L39.2795 29.0024L39.283 28.9907L39.2855 28.9788L38.9543 28.9072ZM38.953 28.9116L39.2757 29.0155L39.2783 29.0068L38.953 28.9116ZM38.9481 28.9248L38.6337 28.7983L38.6325 28.8014L38.9481 28.9248ZM38.9446 28.9338L38.6289 28.8103L38.6265 28.817L38.9446 28.9338ZM38.9416 28.9431L38.6142 28.8559L38.6118 28.8646L38.61 28.8735L38.9416 28.9431ZM38.7787 29.2077L38.5665 28.9434L38.5442 28.9614L38.5252 28.9828L38.7787 29.2077ZM38.7682 29.2117L38.7426 28.8737L38.7366 28.8743L38.7682 29.2117ZM38.7655 29.2119L38.7339 28.8743L38.7216 28.8759L38.7655 29.2119ZM38.7602 29.2138L38.9547 29.4912L38.9554 29.4907L38.7602 29.2138ZM26.68 37.6827L26.4855 37.4053L26.4623 37.4216L26.4421 37.4415L26.68 37.6827ZM26.6706 37.6878L26.7496 38.0174L26.7497 38.0174L26.6706 37.6878ZM26.6625 37.6889V38.0278H26.6754L26.6883 38.0268L26.6625 37.6889ZM26.6625 37.6889V37.35H26.6497L26.6369 37.351L26.6625 37.6889ZM26.6493 37.6918L26.4903 37.3926L26.4774 37.3994L26.4651 37.4074L26.6493 37.6918ZM26.4025 37.7676L26.4018 38.1066L26.4103 38.1064L26.4025 37.7676ZM26.1973 37.7222L26.0539 38.0292L26.0546 38.0295L26.1973 37.7222ZM9.64538 29.9886L9.50114 30.2952L9.50194 30.2956L9.64538 29.9886ZM9.47321 29.8529L9.73797 29.6414L9.73783 29.6412L9.47321 29.8529ZM9.28414 23.8913L9.58385 24.0494L9.67978 23.8675L9.56279 23.6984L9.28414 23.8913ZM9.44247 17.9205L9.7288 18.1017L9.72899 18.1014L9.44247 17.9205ZM9.56698 17.7894L9.43504 17.4772L9.40115 17.4916L9.37113 17.5128L9.56698 17.7894ZM9.57236 17.7825L9.37799 17.505L9.2335 17.6061V17.7825H9.57236ZM21.6587 9.31885L21.4659 9.04022L21.4643 9.04128L21.6587 9.31885ZM22.1437 9.27715L22.2871 8.97015L22.2858 8.96953L22.1437 9.27715ZM38.6949 17.0107L38.5514 17.3178L38.5588 17.321L38.6949 17.0107ZM38.7032 17.0173L38.9496 16.7848L38.9495 16.7847L38.7032 17.0173ZM38.7133 17.0259L38.5443 17.3196V17.3196L38.7133 17.0259ZM38.7275 17.0312L38.6373 17.3578L38.6373 17.3578L38.7275 17.0312ZM38.7418 17.0365L38.9187 16.7473L38.9108 16.7428L38.7418 17.0365ZM38.8816 17.1669L38.6055 17.3632L38.6453 17.4193L38.7038 17.4553L38.8816 17.1669ZM38.8878 17.1798H38.5489V17.2805L38.6039 17.3648L38.8878 17.1798ZM38.9585 17.3723L38.6223 17.4146L38.6232 17.4218L38.6244 17.4288L38.9585 17.3723ZM38.9628 17.3819L38.6764 17.5631L38.6764 17.5631L38.9628 17.3819ZM38.9685 17.3981L39.3068 17.3791L39.3068 17.379L38.9685 17.3981ZM38.9651 17.4183L39.2903 17.5134L39.2903 17.5134L38.9651 17.4183ZM38.9616 17.4368H38.6227L38.6227 17.4374L38.9616 17.4368ZM38.9331 17.596L38.6154 17.4782L38.6116 17.4886L38.6084 17.4992L38.9331 17.596ZM38.9109 17.6567L39.2131 17.8098L39.2173 17.8016L39.221 17.7931L38.9109 17.6567ZM38.9054 17.6718L38.5804 17.5756L38.5804 17.5757L38.9054 17.6718ZM38.8986 17.6893L39.1891 17.8637L39.1918 17.8591L38.8986 17.6893ZM38.8976 17.6908L39.188 17.8655L39.1881 17.8652L38.8976 17.6908ZM38.8663 22.845L38.6017 23.0567L38.6488 23.1155L38.7164 23.1489L38.8663 22.845ZM38.8724 22.8563H38.5336V22.9586L38.5901 23.0438L38.8724 22.8563ZM38.9193 22.9473L38.6028 23.0683L38.6119 23.0923L38.6246 23.1145L38.9193 22.9473ZM38.9539 23.0231H39.2928V22.965L39.2734 22.9102L38.9539 23.0231ZM26.5213 36.6243L26.2323 36.8013L26.4206 37.1086L26.7157 36.9018L26.5213 36.6243ZM26.7596 31.9311L26.5651 31.6536L26.5019 31.6979L26.4641 31.7652L26.7596 31.9311ZM37.8152 28.7126L38.0096 28.9901L38.2755 28.8039L38.1008 28.5303L37.8152 28.7126ZM37.3748 24.4933L37.6994 24.5905L37.9794 23.6559L37.1804 24.2158L37.3748 24.4933ZM25.7393 26.1211L26.0437 26.2701L26.1954 25.9601L25.8827 25.8141L25.7393 26.1211ZM10.0597 18.797L10.2032 18.49L9.90114 18.3489L9.75513 18.6485L10.0597 18.797ZM25.272 30.5413L25.1286 30.8483L25.8534 31.187L25.5923 30.4308L25.272 30.5413ZM10.1543 23.478L9.88295 23.681L9.93385 23.7491L10.0108 23.785L10.1543 23.478ZM26.5209 30.9341L26.2319 31.1109L26.4201 31.4185L26.7153 31.2116L26.5209 30.9341ZM26.7661 26.2288L26.5717 25.9512L26.5095 25.9948L26.4719 26.0607L26.7661 26.2288ZM37.8164 23.0216L38.0108 23.2992L38.277 23.1127L38.1018 22.8389L37.8164 23.0216ZM37.3729 18.7985L37.6975 18.8959L37.978 17.9609L37.1785 18.521L37.3729 18.7985ZM37.5333 17.5209L37.7278 17.7985L38.2079 17.4621L37.6768 17.214L37.5333 17.5209ZM21.9791 10.2529L22.1225 9.94595L21.945 9.86303L21.7846 9.97541L21.9791 10.2529ZM26.3517 25.3546L26.2082 25.6616L26.3857 25.7445L26.5461 25.6321L26.3517 25.3546ZM24.2226 24.3598L24.0792 24.6668L24.0792 24.6668L24.2226 24.3598ZM10.7974 18.0866L10.6029 17.809L10.1228 18.1454L10.6539 18.3936L10.7974 18.0866ZM10.1604 29.1789L9.88985 29.3829L9.94061 29.4502L10.017 29.4859L10.1604 29.1789ZM10.0566 24.491L10.2 24.184L9.89605 24.042L9.75104 24.3445L10.0566 24.491ZM25.275 36.2376L25.1316 36.5447L25.8593 36.8845L25.595 36.1261L25.275 36.2376ZM25.7362 31.8151L26.0408 31.9636L26.1918 31.6539L25.8796 31.5081L25.7362 31.8151ZM39.2916 23.1374C39.2952 23.0937 39.2952 23.0497 39.2916 23.0059L38.6162 23.0616C38.6167 23.0683 38.6167 23.075 38.6162 23.0817L39.2916 23.1374ZM39.296 23.218C39.2991 23.1655 39.2968 23.1127 39.2892 23.0606L38.6186 23.1585C38.6196 23.1651 38.6198 23.1718 38.6195 23.1785L39.296 23.218ZM39.2963 23.1831L39.296 23.1783L38.6195 23.2183L38.6198 23.2231L39.2963 23.1831ZM39.2968 23.2096L39.2969 23.2055L38.6192 23.2008L38.6191 23.2049L39.2968 23.2096ZM39.2959 23.2334L39.2961 23.2295L38.6199 23.185L38.6196 23.1889L39.2959 23.2334ZM39.2364 23.4318C39.2568 23.3887 39.2732 23.3438 39.2854 23.2977L38.6301 23.1247C38.6285 23.1306 38.6264 23.1365 38.6237 23.1422L39.2364 23.4318ZM39.2008 23.525C39.2254 23.4759 39.2447 23.4243 39.2583 23.3711L38.6018 23.2029C38.6002 23.2094 38.5978 23.2157 38.5947 23.2218L39.2008 23.525ZM38.8932 23.3848C39.232 23.3848 39.232 23.3849 39.232 23.385C39.232 23.385 39.232 23.3851 39.232 23.3852C39.232 23.3853 39.232 23.3855 39.232 23.3856C39.232 23.3859 39.232 23.3861 39.232 23.3864C39.232 23.387 39.232 23.3875 39.232 23.3881C39.232 23.3892 39.232 23.3903 39.232 23.3915C39.2319 23.3938 39.2319 23.3962 39.2318 23.3987C39.2315 23.4036 39.2312 23.4091 39.2306 23.4151C39.2296 23.4266 39.2275 23.4423 39.223 23.4606C39.2164 23.488 39.1933 23.5691 39.113 23.6352L38.6826 23.1117C38.5977 23.1815 38.5723 23.2683 38.5645 23.3005C38.5595 23.3212 38.5571 23.339 38.5559 23.352C38.5552 23.3587 38.5549 23.3649 38.5546 23.3703C38.5545 23.373 38.5544 23.3755 38.5544 23.378C38.5544 23.3792 38.5543 23.3803 38.5543 23.3815C38.5543 23.382 38.5543 23.3826 38.5543 23.3832C38.5543 23.3834 38.5543 23.3837 38.5543 23.384C38.5543 23.3841 38.5543 23.3843 38.5543 23.3844C38.5543 23.3845 38.5543 23.3846 38.5543 23.3846C38.5543 23.3847 38.5543 23.3848 38.8932 23.3848ZM39.1828 23.5608L39.1845 23.558L38.6019 23.2116L38.6002 23.2144L39.1828 23.5608ZM39.1255 28.3288C38.3416 27.3491 38.3234 26.207 38.5294 25.2585C38.7356 24.3091 39.1576 23.6029 39.1825 23.5613L38.6006 23.2139C38.5618 23.2788 38.0964 24.0591 37.8671 25.1146C37.6377 26.1709 37.636 27.552 38.5963 28.7522L39.1255 28.3288ZM39.0839 28.286C39.0966 28.2968 39.116 28.3151 39.1353 28.3416L38.5865 28.7393C38.6075 28.7684 38.6291 28.7888 38.6441 28.8016L39.0839 28.286ZM39.0633 28.2698C39.0624 28.2692 39.0649 28.271 39.068 28.2733C39.0713 28.2758 39.0772 28.2802 39.0842 28.2862L38.6438 28.8013C38.6521 28.8084 38.6593 28.8139 38.664 28.8174C38.6685 28.8207 38.6723 28.8234 38.6729 28.8238L39.0633 28.2698ZM39.0591 28.2669L39.059 28.2669L38.6772 28.8268L38.6773 28.8269L39.0591 28.2669ZM39.15 28.3546C39.1275 28.3237 39.1044 28.3024 39.0894 28.2898C39.0817 28.2834 39.0752 28.2785 39.0711 28.2754C39.0672 28.2726 39.0637 28.2701 39.0635 28.27L38.6729 28.8238C38.6762 28.8262 38.6661 28.8193 38.6549 28.8099C38.6423 28.7994 38.6215 28.7804 38.601 28.7521L39.15 28.3546ZM39.2572 28.5859C39.236 28.5097 39.2035 28.4372 39.1608 28.3706L38.5902 28.7361C38.5966 28.7461 38.6013 28.7569 38.6044 28.768L39.2572 28.5859ZM39.263 28.5898C39.2537 28.5663 39.2433 28.5433 39.2316 28.5209L38.63 28.833C38.631 28.8348 38.6318 28.8366 38.6325 28.8384L39.263 28.5898ZM39.2942 28.821C39.2957 28.7644 39.2912 28.7079 39.2809 28.6522L38.6146 28.776C38.6162 28.7848 38.6169 28.7938 38.6167 28.8028L39.2942 28.821ZM39.2929 28.9324C39.2974 28.8822 39.2974 28.8318 39.2929 28.7817L38.6179 28.8421C38.6188 28.852 38.6188 28.862 38.6179 28.8719L39.2929 28.9324ZM39.2855 28.9788L39.2866 28.9737L38.6242 28.8305L38.6231 28.8356L39.2855 28.9788ZM39.2783 29.0068L39.2795 29.0024L38.6291 28.812L38.6278 28.8164L39.2783 29.0068ZM39.2625 29.0513C39.2634 29.0489 39.2699 29.0333 39.2756 29.0154L38.6305 28.8078C38.6322 28.8024 38.6337 28.7985 38.6342 28.7972C38.6346 28.7962 38.6348 28.7956 38.6337 28.7983L39.2625 29.0513ZM39.2602 29.0572L39.2637 29.0482L38.6325 28.8014L38.629 28.8104L39.2602 29.0572ZM39.269 29.0303C39.2664 29.0402 39.2639 29.0474 39.2627 29.0505L38.6265 28.817C38.6231 28.8262 38.6185 28.8396 38.6142 28.8559L39.269 29.0303ZM38.9908 29.4719C39.135 29.3562 39.2352 29.1941 39.2732 29.0126L38.61 28.8735C38.6044 28.9002 38.5894 28.925 38.5665 28.9434L38.9908 29.4719ZM38.7938 29.5496C38.7939 29.5496 38.7966 29.5494 38.7997 29.5491C38.8031 29.5488 38.8083 29.5483 38.8147 29.5474C38.8272 29.5458 38.8472 29.5426 38.871 29.5354C38.9241 29.5195 38.983 29.4879 39.0321 29.4326L38.5252 28.9828C38.5713 28.9309 38.6268 28.9011 38.6763 28.8863C38.7155 28.8745 38.7507 28.8732 38.7426 28.8738L38.7938 29.5496ZM38.797 29.5493L38.7997 29.5491L38.7366 28.8743L38.7339 28.8745L38.797 29.5493ZM38.9554 29.4907C38.8922 29.5353 38.8312 29.5451 38.8094 29.5479L38.7216 28.8759C38.696 28.8793 38.6314 28.89 38.565 28.9368L38.9554 29.4907ZM26.8745 37.9602L38.9547 29.4912L38.5657 28.9363L26.4855 37.4053L26.8745 37.9602ZM26.7497 38.0174C26.8009 38.0051 26.863 37.9782 26.918 37.924L26.4421 37.4415C26.4912 37.393 26.547 37.369 26.5916 37.3583L26.7497 38.0174ZM26.6883 38.0268C26.6886 38.0268 26.6966 38.0262 26.7058 38.0251C26.7157 38.024 26.7312 38.0218 26.7496 38.0174L26.5916 37.3583C26.6075 37.3545 26.6202 37.3528 26.6275 37.3519C26.6339 37.3512 26.6393 37.3508 26.6368 37.351L26.6883 38.0268ZM26.6625 38.0278H26.6625V37.35H26.6625V38.0278ZM26.8083 37.9911C26.7718 38.0104 26.7389 38.0189 26.7173 38.0229C26.6987 38.0263 26.6829 38.0272 26.6882 38.0268L26.6369 37.351C26.6365 37.351 26.6309 37.3514 26.6245 37.3521C26.6177 37.3528 26.6071 37.3541 26.5943 37.3564C26.5683 37.3612 26.531 37.371 26.4903 37.3926L26.8083 37.9911ZM26.4103 38.1064C26.5605 38.103 26.7071 38.058 26.8334 37.9763L26.4651 37.4074C26.4446 37.4207 26.4202 37.4283 26.3948 37.4289L26.4103 38.1064ZM26.0546 38.0295C26.1634 38.08 26.2819 38.1063 26.4018 38.1065L26.4033 37.4288C26.3812 37.4287 26.3596 37.4239 26.3401 37.4148L26.0546 38.0295ZM9.50194 30.2956L26.0539 38.0292L26.3408 37.4152L9.78882 29.6816L9.50194 30.2956ZM9.20846 30.0644C9.28709 30.1628 9.38732 30.2417 9.50114 30.2952L9.78963 29.682C9.76907 29.6723 9.75148 29.6583 9.73797 29.6414L9.20846 30.0644ZM8.98442 23.7332C8.74417 24.1886 8.30662 25.1406 8.17252 26.2898C8.03764 27.4455 8.20923 28.8153 9.2086 30.0646L9.73783 29.6412C8.87948 28.5682 8.72595 27.3942 8.84567 26.3683C8.96616 25.3358 9.36294 24.4681 9.58385 24.0494L8.98442 23.7332ZM9.15614 17.7393C9.10201 17.8248 8.57697 18.6837 8.30433 19.8759C8.03117 21.0704 8.00428 22.6372 9.00548 24.0841L9.56279 23.6984C8.7078 22.4629 8.71666 21.1129 8.965 20.027C9.21386 18.9387 9.69608 18.1534 9.7288 18.1017L9.15614 17.7393ZM9.37113 17.5128C9.28534 17.5736 9.21216 17.6506 9.15595 17.7396L9.72899 18.1014C9.7376 18.0878 9.74903 18.0757 9.76284 18.0659L9.37113 17.5128ZM9.57236 17.7825C9.2335 17.7825 9.2335 17.7823 9.2335 17.7821C9.2335 17.7821 9.2335 17.7819 9.23351 17.7817C9.23351 17.7815 9.23351 17.7812 9.23351 17.781C9.23351 17.7804 9.23351 17.7799 9.23352 17.7794C9.23353 17.7783 9.23354 17.7772 9.23356 17.7761C9.23361 17.774 9.23367 17.7717 9.23376 17.7695C9.23393 17.7649 9.23421 17.7601 9.23461 17.7552C9.23542 17.7453 9.23675 17.7344 9.23889 17.7226C9.24312 17.6994 9.25087 17.6709 9.26537 17.6402C9.29732 17.5726 9.35484 17.5111 9.43504 17.4772L9.69893 18.1015C9.7845 18.0653 9.84472 18.0004 9.87801 17.93C9.89319 17.8979 9.90128 17.8681 9.90567 17.8439C9.90789 17.8317 9.90927 17.8204 9.91009 17.8103C9.91051 17.8052 9.91079 17.8003 9.91097 17.7957C9.91106 17.7934 9.91112 17.7911 9.91116 17.7889C9.91118 17.7879 9.9112 17.7868 9.91121 17.7857C9.91121 17.7852 9.91122 17.7846 9.91122 17.7841C9.91122 17.7838 9.91122 17.7836 9.91122 17.7833C9.91122 17.7832 9.91122 17.783 9.91122 17.7829C9.91122 17.7827 9.91122 17.7825 9.57236 17.7825ZM21.4643 9.04128L9.37799 17.505L9.76674 18.0601L21.8531 9.59642L21.4643 9.04128ZM22.2858 8.96953C22.0196 8.84657 21.7072 8.8732 21.4659 9.04022L21.8516 9.59749C21.8951 9.56736 21.9527 9.56218 22.0016 9.58478L22.2858 8.96953ZM38.8383 16.7037L22.2871 8.97015L22.0003 9.58416L38.5514 17.3177L38.8383 16.7037ZM38.9495 16.7847C38.9495 16.7846 38.9459 16.7808 38.9417 16.7765C38.9371 16.7719 38.9297 16.7647 38.9201 16.7564C38.8998 16.739 38.8703 16.7176 38.831 16.7004L38.5588 17.321C38.5229 17.3053 38.4963 17.2858 38.4786 17.2707C38.4641 17.2582 38.4531 17.2461 38.4568 17.25L38.9495 16.7847ZM38.8823 16.7321C38.9246 16.7565 38.951 16.7863 38.9496 16.7848L38.4567 17.2499C38.4605 17.254 38.4927 17.2899 38.5443 17.3196L38.8823 16.7321ZM38.8178 16.7045C38.8136 16.7034 38.822 16.7056 38.8319 16.709C38.8435 16.7131 38.8616 16.7202 38.8823 16.7321L38.5443 17.3196C38.5697 17.3342 38.5925 17.3433 38.6088 17.349C38.6235 17.3541 38.6366 17.3576 38.6373 17.3578L38.8178 16.7045ZM38.9108 16.7428C38.8854 16.7282 38.8626 16.719 38.8463 16.7134C38.8316 16.7082 38.8184 16.7047 38.8178 16.7045L38.6373 17.3578C38.6415 17.3589 38.6331 17.3567 38.6232 17.3533C38.6116 17.3493 38.5935 17.3421 38.5727 17.3302L38.9108 16.7428ZM39.1578 16.9705C39.0939 16.8807 39.0125 16.8049 38.9186 16.7474L38.5649 17.3255C38.5812 17.3355 38.5949 17.3484 38.6055 17.3632L39.1578 16.9705ZM39.2267 17.1798C39.2267 17.1797 39.2267 17.1784 39.2267 17.177C39.2266 17.1754 39.2266 17.1731 39.2266 17.1703C39.2264 17.1649 39.2261 17.1567 39.2252 17.1469C39.2235 17.1273 39.2194 17.0983 39.208 17.0648C39.1822 16.9883 39.1303 16.9221 39.0595 16.8784L38.7038 17.4553C38.6391 17.4154 38.5903 17.3538 38.566 17.2819C38.5465 17.2241 38.5489 17.1727 38.5489 17.1798H39.2267ZM39.2947 17.33C39.2797 17.2103 39.2375 17.0957 39.1717 16.9947L38.6039 17.3648C38.6139 17.3801 38.6201 17.3972 38.6223 17.4146L39.2947 17.33ZM39.2491 17.2007C39.2448 17.1939 39.2805 17.2441 39.2926 17.3158L38.6244 17.4288C38.6311 17.4686 38.6436 17.5013 38.6557 17.5261C38.6613 17.5377 38.6666 17.547 38.6702 17.5529C38.6734 17.5584 38.6764 17.5631 38.6764 17.5631L39.2491 17.2007ZM39.3068 17.379C39.3013 17.2818 39.2592 17.2167 39.2491 17.2007L38.6764 17.5631C38.6788 17.5669 38.6648 17.5459 38.6531 17.5177C38.6399 17.4855 38.6321 17.4514 38.6302 17.4172L39.3068 17.379ZM39.2903 17.5134C39.2906 17.5125 39.2959 17.495 39.3 17.4747C39.3045 17.452 39.3091 17.4189 39.3068 17.3791L38.6302 17.4171C38.6283 17.3845 38.6321 17.3582 38.6353 17.3422C38.6381 17.3285 38.6415 17.3175 38.6398 17.3232L39.2903 17.5134ZM39.3004 17.4368C39.3004 17.464 39.2967 17.4856 39.294 17.4985C39.2916 17.5095 39.2889 17.5184 39.2903 17.5134L38.6399 17.3232C38.6396 17.3242 38.6351 17.339 38.6314 17.3562C38.6273 17.3752 38.6227 17.403 38.6227 17.4368H39.3004ZM39.2509 17.7138C39.2838 17.625 39.3006 17.531 39.3004 17.4361L38.6227 17.4374C38.6227 17.4512 38.6203 17.465 38.6154 17.4782L39.2509 17.7138ZM39.221 17.7931C39.2354 17.7605 39.2477 17.727 39.2579 17.6928L38.6084 17.4992C38.6063 17.5063 38.6037 17.5133 38.6007 17.5202L39.221 17.7931ZM39.2303 17.7679C39.2314 17.7642 39.23 17.7692 39.2278 17.7753C39.2253 17.7825 39.2207 17.7949 39.2131 17.8098L38.6086 17.5035C38.59 17.5402 38.5807 17.5747 38.5804 17.5756L39.2303 17.7679ZM39.1918 17.8591C39.2184 17.8132 39.23 17.769 39.2303 17.7678L38.5804 17.5757C38.5791 17.5802 38.5811 17.5731 38.5842 17.5645C38.5879 17.5544 38.5945 17.5382 38.6053 17.5194L39.1918 17.8591ZM39.1881 17.8652L39.1891 17.8637L38.608 17.5148L38.6071 17.5163L39.1881 17.8652ZM39.1309 22.6333C38.3435 21.6493 38.3286 20.5012 38.5375 19.5502C38.7466 18.5985 39.1707 17.8943 39.188 17.8655L38.6073 17.5161C38.5754 17.5691 38.1079 18.3472 37.8756 19.4048C37.6431 20.463 37.6371 21.8511 38.6017 23.0567L39.1309 22.6333ZM39.2113 22.8563C39.2113 22.8563 39.2113 22.855 39.2113 22.8535C39.2113 22.8519 39.2112 22.8495 39.2112 22.8466C39.211 22.8409 39.2107 22.832 39.2097 22.8212C39.2076 22.7996 39.2025 22.7663 39.1878 22.7283C39.1533 22.639 39.0875 22.5762 39.0162 22.5411L38.7164 23.1489C38.6512 23.1167 38.5885 23.0577 38.5556 22.9725C38.5301 22.9065 38.5336 22.8456 38.5336 22.8563H39.2113ZM39.2358 22.8263C39.2147 22.771 39.1875 22.7182 39.1547 22.6689L38.5901 23.0438C38.5953 23.0516 38.5995 23.0598 38.6028 23.0683L39.2358 22.8263ZM39.2734 22.9102C39.2575 22.8652 39.2376 22.8216 39.214 22.7801L38.6246 23.1145C38.6285 23.1215 38.6318 23.1287 38.6344 23.136L39.2734 22.9102ZM39.2928 23.0337V23.0231H38.615V23.0337H39.2928ZM26.8103 36.4473C26.2777 35.5777 26.2655 34.6157 26.4314 33.7903C26.5973 32.9647 26.9353 32.3104 27.0551 32.097L26.4641 31.7652C26.3264 32.0106 25.9523 32.7346 25.7669 33.6568C25.5816 34.5793 25.579 35.7344 26.2323 36.8013L26.8103 36.4473ZM37.6208 28.4351L26.3269 36.3468L26.7157 36.9018L38.0096 28.9901L37.6208 28.4351ZM37.0502 24.396C36.6916 25.5929 36.5126 27.3017 37.5296 28.8949L38.1008 28.5303C37.2332 27.1711 37.3693 25.6924 37.6994 24.5905L37.0502 24.396ZM26.954 32.2086L37.5693 24.7708L37.1804 24.2158L26.5651 31.6536L26.954 32.2086ZM25.8827 25.8141L10.2032 18.49L9.91634 19.104L25.5959 26.4281L25.8827 25.8141ZM25.5923 30.4308C25.0187 28.7691 25.6484 27.0772 26.0437 26.2701L25.435 25.9721C25.0201 26.8193 24.2863 28.7243 24.9517 30.6519L25.5923 30.4308ZM10.0108 23.785L25.1286 30.8483L25.4155 30.2343L10.2977 23.171L10.0108 23.785ZM9.75513 18.6485C9.54028 19.0895 9.22412 19.8689 9.13233 20.7726C9.04012 21.6805 9.17342 22.7325 9.88295 23.681L10.4256 23.2751C9.84543 22.4994 9.72625 21.6321 9.80659 20.8411C9.88735 20.0459 10.1688 19.3468 10.3644 18.9454L9.75513 18.6485ZM26.81 30.7572C26.2728 29.8793 26.2648 28.9074 26.435 28.0774C26.6053 27.2472 26.9475 26.5944 27.0603 26.3969L26.4719 26.0607C26.3396 26.2922 25.9612 27.0148 25.7711 27.9413C25.5811 28.868 25.5731 30.0343 26.2319 31.1109L26.81 30.7572ZM37.622 22.7441L26.3265 30.6565L26.7153 31.2116L38.0108 23.2992L37.622 22.7441ZM37.0483 18.7011C36.6889 19.8991 36.5107 21.6103 37.531 23.2043L38.1018 22.8389C37.2313 21.479 37.3667 19.9983 37.6975 18.8959L37.0483 18.7011ZM26.9605 26.5063L37.5673 19.076L37.1785 18.521L26.5717 25.9512L26.9605 26.5063ZM37.6768 17.214L22.1225 9.94595L21.8356 10.5599L37.3899 17.8279L37.6768 17.214ZM26.5461 25.6321L37.7278 17.7985L37.3389 17.2434L26.1572 25.077L26.5461 25.6321ZM24.0792 24.6668L26.2082 25.6616L26.4951 25.0476L24.3661 24.0528L24.0792 24.6668ZM10.6539 18.3936L24.0792 24.6668L24.3661 24.0528L10.9408 17.7796L10.6539 18.3936ZM21.7846 9.97541L10.6029 17.809L10.9918 18.3641L22.1735 10.5305L21.7846 9.97541ZM10.4309 28.9748C9.84714 28.2009 9.72656 27.3341 9.80608 26.5421C9.88604 25.7458 10.1673 25.0441 10.3622 24.6374L9.75104 24.3445C9.53857 24.7878 9.22262 25.5695 9.13176 26.4744C9.04046 27.3836 9.17544 28.4358 9.88985 29.3829L10.4309 28.9748ZM25.4184 35.9306L10.3038 28.8718L10.017 29.4859L25.1316 36.5447L25.4184 35.9306ZM25.4316 31.6666C25.0155 32.5202 24.2837 34.4227 24.955 36.3491L25.595 36.1261C25.0166 34.4663 25.6438 32.778 26.0408 31.9636L25.4316 31.6666ZM9.91321 24.798L25.5928 32.1221L25.8796 31.5081L10.2 24.184L9.91321 24.798Z" fill="#FF716B"/>
</svg>
