<svg width="25" height="24" viewBox="0 0 25 24" fill="none" xmlns="http://www.w3.org/2000/svg">
<rect x="0.5" width="24" height="24" rx="6" fill="#677FFB"/>
<g clip-path="url(#clip0_514_15355)">
<path d="M16.5625 11.1875C16.9077 11.1875 17.1875 10.9077 17.1875 10.5625C17.1875 10.2173 16.9077 9.9375 16.5625 9.9375C16.2173 9.9375 15.9375 10.2173 15.9375 10.5625C15.9375 10.9077 16.2173 11.1875 16.5625 11.1875Z" fill="white"/>
<path d="M18 5.25H17.1875V4.625C17.1875 4.27981 16.9077 4 16.5625 4C16.2173 4 15.9375 4.27981 15.9375 4.625V5.25H13.0938V4.625C13.0938 4.27981 12.8139 4 12.4688 4C12.1236 4 11.8438 4.27981 11.8438 4.625V5.25H9.03125V4.625C9.03125 4.27981 8.75144 4 8.40625 4C8.06106 4 7.78125 4.27981 7.78125 4.625V5.25H7C5.6215 5.25 4.5 6.3715 4.5 7.75V17.5C4.5 18.8785 5.6215 20 7 20H11.7812C12.1264 20 12.4062 19.7202 12.4062 19.375C12.4062 19.0298 12.1264 18.75 11.7812 18.75H7C6.31075 18.75 5.75 18.1892 5.75 17.5V7.75C5.75 7.06075 6.31075 6.5 7 6.5H7.78125V7.125C7.78125 7.47019 8.06106 7.75 8.40625 7.75C8.75144 7.75 9.03125 7.47019 9.03125 7.125V6.5H11.8438V7.125C11.8438 7.47019 12.1236 7.75 12.4688 7.75C12.8139 7.75 13.0938 7.47019 13.0938 7.125V6.5H15.9375V7.125C15.9375 7.47019 16.2173 7.75 16.5625 7.75C16.9077 7.75 17.1875 7.47019 17.1875 7.125V6.5H18C18.6892 6.5 19.25 7.06075 19.25 7.75V11.3125C19.25 11.6577 19.5298 11.9375 19.875 11.9375C20.2202 11.9375 20.5 11.6577 20.5 11.3125V7.75C20.5 6.3715 19.3785 5.25 18 5.25Z" fill="white"/>
<path d="M16.7188 12.4375C14.6337 12.4375 12.9375 14.1337 12.9375 16.2188C12.9375 18.3038 14.6337 20 16.7188 20C18.8038 20 20.5 18.3038 20.5 16.2188C20.5 14.1337 18.8038 12.4375 16.7188 12.4375ZM16.7188 18.75C15.323 18.75 14.1875 17.6145 14.1875 16.2188C14.1875 14.823 15.323 13.6875 16.7188 13.6875C18.1145 13.6875 19.25 14.823 19.25 16.2188C19.25 17.6145 18.1145 18.75 16.7188 18.75Z" fill="white"/>
<path d="M17.625 15.5938H17.3438V14.9375C17.3438 14.5923 17.0639 14.3125 16.7188 14.3125C16.3736 14.3125 16.0938 14.5923 16.0938 14.9375V16.2188C16.0938 16.5639 16.3736 16.8438 16.7188 16.8438H17.625C17.9702 16.8438 18.25 16.5639 18.25 16.2188C18.25 15.8736 17.9702 15.5938 17.625 15.5938Z" fill="white"/>
<path d="M13.8438 11.1875C14.1889 11.1875 14.4688 10.9077 14.4688 10.5625C14.4688 10.2173 14.1889 9.9375 13.8438 9.9375C13.4986 9.9375 13.2188 10.2173 13.2188 10.5625C13.2188 10.9077 13.4986 11.1875 13.8438 11.1875Z" fill="white"/>
<path d="M11.125 13.9062C11.4702 13.9062 11.75 13.6264 11.75 13.2812C11.75 12.9361 11.4702 12.6562 11.125 12.6562C10.7798 12.6562 10.5 12.9361 10.5 13.2812C10.5 13.6264 10.7798 13.9062 11.125 13.9062Z" fill="white"/>
<path d="M8.40625 11.1875C8.75143 11.1875 9.03125 10.9077 9.03125 10.5625C9.03125 10.2173 8.75143 9.9375 8.40625 9.9375C8.06107 9.9375 7.78125 10.2173 7.78125 10.5625C7.78125 10.9077 8.06107 11.1875 8.40625 11.1875Z" fill="white"/>
<path d="M8.40625 13.9062C8.75143 13.9062 9.03125 13.6264 9.03125 13.2812C9.03125 12.9361 8.75143 12.6562 8.40625 12.6562C8.06107 12.6562 7.78125 12.9361 7.78125 13.2812C7.78125 13.6264 8.06107 13.9062 8.40625 13.9062Z" fill="white"/>
<path d="M8.40625 16.625C8.75143 16.625 9.03125 16.3452 9.03125 16C9.03125 15.6548 8.75143 15.375 8.40625 15.375C8.06107 15.375 7.78125 15.6548 7.78125 16C7.78125 16.3452 8.06107 16.625 8.40625 16.625Z" fill="white"/>
<path d="M11.125 16.625C11.4702 16.625 11.75 16.3452 11.75 16C11.75 15.6548 11.4702 15.375 11.125 15.375C10.7798 15.375 10.5 15.6548 10.5 16C10.5 16.3452 10.7798 16.625 11.125 16.625Z" fill="white"/>
<path d="M11.125 11.1875C11.4702 11.1875 11.75 10.9077 11.75 10.5625C11.75 10.2173 11.4702 9.9375 11.125 9.9375C10.7798 9.9375 10.5 10.2173 10.5 10.5625C10.5 10.9077 10.7798 11.1875 11.125 11.1875Z" fill="white"/>
</g>
<defs>
<clipPath id="clip0_514_15355">
<rect width="16" height="16" fill="white" transform="translate(4.5 4)"/>
</clipPath>
</defs>
</svg>
