<svg width="22" height="22" viewBox="0 0 22 22" fill="none" xmlns="http://www.w3.org/2000/svg">
<path d="M11 20.625C5.6925 20.625 1.375 16.3075 1.375 11C1.375 5.6925 5.6925 1.375 11 1.375C16.3075 1.375 20.625 5.6925 20.625 11C20.625 16.3075 16.3075 20.625 11 20.625ZM11 2.75C6.44875 2.75 2.75 6.44875 2.75 11C2.75 15.5512 6.44875 19.25 11 19.25C15.5512 19.25 19.25 15.5512 19.25 11C19.25 6.44875 15.5512 2.75 11 2.75Z" fill="#546DEF"/>
<path d="M13.75 14.4375C13.6263 14.4375 13.5025 14.41 13.3925 14.3413L9.95501 12.2788C9.85366 12.2171 9.77 12.1302 9.71218 12.0266C9.65435 11.923 9.62432 11.8062 9.62501 11.6875V6.1875C9.62501 5.8025 9.92751 5.5 10.3125 5.5C10.6975 5.5 11 5.8025 11 6.1875V11.3025L14.1075 13.1587C14.2355 13.2372 14.3344 13.3552 14.3893 13.495C14.4442 13.6347 14.452 13.7885 14.4116 13.9331C14.3712 14.0777 14.2847 14.2051 14.1653 14.2962C14.0459 14.3872 13.9001 14.4368 13.75 14.4375Z" fill="#546DEF"/>
</svg>
