<svg width="25" height="24" viewBox="0 0 25 24" fill="none" xmlns="http://www.w3.org/2000/svg">
<rect x="0.5" width="24" height="24" rx="6" fill="#677FFB"/>
<path d="M19.0194 6.1889C18.7213 6.12702 18.4232 6.08765 18.1251 6.03702V5.73327C18.1249 5.51409 18.0782 5.29744 17.988 5.09767C17.8979 4.8979 17.7662 4.71958 17.6019 4.57452C17.4343 4.42736 17.2372 4.31763 17.0238 4.25265C16.8104 4.18766 16.5856 4.16891 16.3644 4.19765C14.8924 4.37213 13.5266 5.05206 12.5001 6.1214C11.4735 5.05206 10.1077 4.37213 8.63568 4.19765C8.41447 4.16891 8.18968 4.18766 7.97629 4.25265C7.7629 4.31763 7.56582 4.42736 7.39818 4.57452C7.23387 4.71958 7.10226 4.8979 7.01207 5.09767C6.92188 5.29744 6.87518 5.51409 6.87505 5.73327V6.03702C6.57693 6.08765 6.2788 6.12702 5.98068 6.1889C5.59848 6.26556 5.25461 6.47218 5.00749 6.77364C4.76037 7.07511 4.62524 7.45284 4.62505 7.84265V17.3714C4.62315 17.6111 4.67233 17.8484 4.76932 18.0676C4.86631 18.2868 5.00889 18.4829 5.18755 18.6426C5.36859 18.8002 5.58114 18.9173 5.81103 18.9862C6.04092 19.055 6.28285 19.0741 6.52068 19.042C8.47104 18.7791 10.4562 19.0513 12.2638 19.8295C12.3332 19.8589 12.4078 19.8741 12.4832 19.8741C12.5585 19.8741 12.6332 19.8589 12.7026 19.8295C14.5102 19.0513 16.4953 18.7791 18.4457 19.042C18.6854 19.0743 18.9293 19.0546 19.1607 18.9844C19.3922 18.9142 19.6059 18.795 19.7872 18.6349C19.9686 18.4749 20.1135 18.2778 20.212 18.0568C20.3105 17.8359 20.3603 17.5964 20.3582 17.3545V7.84265C20.3588 7.4552 20.2261 7.07934 19.9823 6.7782C19.7385 6.47705 19.3985 6.26897 19.0194 6.1889ZM16.5107 5.3114C16.5731 5.30316 16.6365 5.30843 16.6967 5.32688C16.7569 5.34532 16.8124 5.37649 16.8594 5.41827C16.9037 5.45791 16.9392 5.50646 16.9634 5.56074C16.9876 5.61503 17.0001 5.67382 17.0001 5.73327V15.4701C17.0032 15.6002 16.9613 15.7273 16.8813 15.8298C16.8013 15.9324 16.6882 16.0041 16.5613 16.0326C15.2466 16.257 14.0285 16.868 13.0626 17.7876V7.16202C13.9405 6.13616 15.1705 5.47598 16.5107 5.3114ZM8.00005 5.73327C8.00151 5.62035 8.04702 5.51245 8.12688 5.4326C8.20673 5.35274 8.31463 5.30723 8.42755 5.30577H8.48943C9.83041 5.47182 11.0606 6.13406 11.9376 7.16202V17.7876C10.973 16.8639 9.75483 16.2489 8.4388 16.0214C8.31191 15.9928 8.19885 15.9212 8.11885 15.8186C8.03886 15.716 7.99688 15.5889 8.00005 15.4589V5.73327ZM6.38568 17.9283C6.30591 17.9387 6.22483 17.932 6.14791 17.9084C6.07098 17.8849 6 17.8451 5.93975 17.7918C5.87951 17.7385 5.8314 17.6729 5.79868 17.5994C5.76595 17.5259 5.74937 17.4462 5.75005 17.3658V7.84265C5.7474 7.71105 5.79098 7.58269 5.8732 7.47991C5.95542 7.37714 6.07109 7.30644 6.20005 7.28015C6.42505 7.23515 6.65005 7.2014 6.87505 7.16765V15.4701C6.87494 15.8641 7.01267 16.2457 7.26438 16.5488C7.51608 16.8518 7.86589 17.0573 8.25318 17.1295C9.0806 17.2748 9.86374 17.6077 10.5426 18.1026C9.17816 17.799 7.77071 17.74 6.38568 17.9283ZM19.2501 17.3658C19.2507 17.4462 19.2342 17.5259 19.2014 17.5994C19.1687 17.6729 19.1206 17.7385 19.0604 17.7918C19.0001 17.8451 18.9291 17.8849 18.8522 17.9084C18.7753 17.932 18.6942 17.9387 18.6144 17.9283C17.2294 17.74 15.8219 17.799 14.4576 18.1026C15.1364 17.6077 15.9195 17.2748 16.7469 17.1295C17.1342 17.0573 17.484 16.8518 17.7357 16.5488C17.9874 16.2457 18.1252 15.8641 18.1251 15.4701V7.1789C18.3501 7.21265 18.5751 7.2464 18.8057 7.2914C18.9336 7.31884 19.048 7.39002 19.1291 7.49269C19.2102 7.59536 19.253 7.72309 19.2501 7.8539V17.3658Z" fill="white"/>
</svg>
