<svg width="48" height="47" viewBox="0 0 48 47" fill="none" xmlns="http://www.w3.org/2000/svg">
<rect x="-0.000183105" width="48" height="47" rx="12" fill="#EEF9F5"/>
<path fill-rule="evenodd" clip-rule="evenodd" d="M19.9207 27.188V22.9019H19.9213C19.9134 21.3653 20.7331 19.9422 22.0697 19.1716C23.4064 18.4011 25.0554 18.4011 26.3921 19.1716C27.7287 19.9422 28.5484 21.3653 28.5405 22.9019V27.188C28.5405 29.5554 26.6109 31.4745 24.2306 31.4745C21.8503 31.4745 19.9207 29.5554 19.9207 27.188ZM26.6175 20.5295C25.9866 19.9015 25.1255 19.5565 24.233 19.5743C23.3399 19.5559 22.4778 19.9005 21.8459 20.5285C21.2139 21.1564 20.8668 22.0135 20.8845 22.9019V27.188C20.8776 28.3814 21.5137 29.4871 22.5517 30.0858C23.5898 30.6845 24.8706 30.6845 25.9086 30.0858C26.9467 29.4871 27.5828 28.3814 27.5759 27.188V22.9019C27.5945 22.0143 27.2484 21.1575 26.6175 20.5295Z" fill="#09B97D"/>
<path d="M19.9207 22.9019V22.8171H19.836V22.9019H19.9207ZM19.9213 22.9019V22.9866H20.0064L20.006 22.9014L19.9213 22.9019ZM22.0697 19.1716L22.0274 19.0983L22.0274 19.0983L22.0697 19.1716ZM26.3921 19.1716L26.3498 19.245L26.3498 19.245L26.3921 19.1716ZM28.5405 22.9019L28.4558 22.9014V22.9019H28.5405ZM24.233 19.5743L24.2313 19.6591L24.2347 19.659L24.233 19.5743ZM26.6175 20.5295L26.5578 20.5895L26.5578 20.5895L26.6175 20.5295ZM21.8459 20.5285L21.7862 20.4684L21.7862 20.4684L21.8459 20.5285ZM20.8845 22.9019H20.9692L20.9692 22.9002L20.8845 22.9019ZM20.8845 27.188L20.9692 27.1885V27.188H20.8845ZM22.5517 30.0858L22.5941 30.0124L22.5941 30.0124L22.5517 30.0858ZM25.9086 30.0858L25.951 30.1592L25.951 30.1592L25.9086 30.0858ZM27.5759 27.188H27.4912L27.4912 27.1885L27.5759 27.188ZM27.5759 22.9019L27.4912 22.9001V22.9019H27.5759ZM19.836 22.9019V27.188H20.0054V22.9019H19.836ZM19.9213 22.8171H19.9207V22.9866H19.9213V22.8171ZM22.0274 19.0983C20.6645 19.8839 19.8285 21.3352 19.8366 22.9023L20.006 22.9014C19.9983 21.3955 20.8016 20.0004 22.112 19.245L22.0274 19.0983ZM26.4344 19.0983C25.0716 18.3126 23.3902 18.3126 22.0274 19.0983L22.112 19.245C23.4225 18.4896 25.0393 18.4896 26.3498 19.245L26.4344 19.0983ZM28.6253 22.9023C28.6333 21.3352 27.7973 19.8839 26.4344 19.0983L26.3498 19.245C27.6602 20.0004 28.4635 21.3955 28.4558 22.9014L28.6253 22.9023ZM28.6253 27.188V22.9019H28.4558V27.188H28.6253ZM24.2306 31.5592C26.6573 31.5592 28.6253 29.6026 28.6253 27.188H28.4558C28.4558 29.5082 26.5646 31.3898 24.2306 31.3898V31.5592ZM19.836 27.188C19.836 29.6026 21.804 31.5592 24.2306 31.5592V31.3898C21.8967 31.3898 20.0054 29.5082 20.0054 27.188H19.836ZM24.2347 19.659C25.1043 19.6417 25.9432 19.9778 26.5578 20.5895L26.6773 20.4694C26.0301 19.8252 25.1467 19.4713 24.2314 19.4896L24.2347 19.659ZM21.9056 20.5885C22.5212 19.9768 23.3611 19.6411 24.2313 19.659L24.2348 19.4896C23.3187 19.4707 22.4345 19.8241 21.7862 20.4684L21.9056 20.5885ZM20.9692 22.9002C20.9519 22.0351 21.29 21.2003 21.9056 20.5885L21.7862 20.4684C21.1378 21.1126 20.7816 21.992 20.7998 22.9035L20.9692 22.9002ZM20.9692 27.188V22.9019H20.7998V27.188H20.9692ZM22.5941 30.0124C21.5823 29.4289 20.9625 28.3513 20.9692 27.1885L20.7998 27.1875C20.7927 28.4115 21.4452 29.5454 22.5094 30.1592L22.5941 30.0124ZM25.8663 30.0124C24.8545 30.596 23.6059 30.596 22.5941 30.0124L22.5094 30.1592C23.5736 30.773 24.8868 30.773 25.951 30.1592L25.8663 30.0124ZM27.4912 27.1885C27.4979 28.3513 26.8781 29.4289 25.8663 30.0124L25.951 30.1592C27.0152 29.5454 27.6677 28.4115 27.6606 27.1875L27.4912 27.1885ZM27.4912 22.9019V27.188H27.6606V22.9019H27.4912ZM26.5578 20.5895C27.1723 21.2013 27.5094 22.0357 27.4912 22.9001L27.6606 22.9036C27.6797 21.9928 27.3246 21.1138 26.6773 20.4694L26.5578 20.5895Z" fill="#CED0D8"/>
<path d="M29.3771 25.2751V27.3872C29.3621 30.2049 27.0602 32.4807 24.2271 32.4788C21.394 32.477 19.0951 30.1981 19.0839 27.3804V25.2683C19.0891 25.0928 18.9975 24.9285 18.8451 24.8399C18.6927 24.7514 18.5038 24.7527 18.3527 24.8434C18.2015 24.9341 18.1123 25.0997 18.12 25.2751V27.3872C18.1017 30.5642 20.5625 33.2116 23.7486 33.4423V36.8058H20.6254C20.4397 36.784 20.2578 36.8703 20.158 37.0276C20.0582 37.185 20.0582 37.3854 20.158 37.5427C20.2578 37.7001 20.4397 37.7863 20.6254 37.7645H27.8356C28.0977 37.7589 28.3073 37.5459 28.3073 37.2852C28.3073 37.0244 28.0977 36.8114 27.8356 36.8058H24.7124V33.4423C27.8984 33.2116 30.3593 30.5642 30.341 27.3872V25.2751C30.3486 25.0989 30.2585 24.9327 30.1062 24.8424C29.9539 24.752 29.7641 24.752 29.6119 24.8424C29.4596 24.9327 29.3694 25.0989 29.3771 25.2751V25.2751Z" fill="#09B97D" stroke="#CED0D8" stroke-width="0.16943"/>
<path fill-rule="evenodd" clip-rule="evenodd" d="M27.9687 11.6739C28.5733 10.1962 30.0182 9.23065 31.6222 9.23245C33.7762 9.22495 35.5379 10.9375 35.5795 13.0794C35.6211 15.2213 33.9273 17.0003 31.7746 17.0756L29.8771 18.3577C29.7972 18.4114 29.7029 18.4401 29.6065 18.4401C29.5379 18.4403 29.4701 18.4256 29.4078 18.3971C29.2546 18.3284 29.1486 18.185 29.1283 18.0191L28.8703 15.9588C27.7207 14.8462 27.3641 13.1515 27.9687 11.6739ZM31.3517 16.2013C31.4316 16.1477 31.5259 16.119 31.6223 16.1189V16.1185C33.0569 16.1215 34.289 15.1054 34.5516 13.7028C34.8143 12.3001 34.0325 10.911 32.693 10.4002C31.3536 9.8894 29.8384 10.4026 29.0908 11.6203C28.3433 12.8381 28.5765 14.413 29.6454 15.3647C29.734 15.4423 29.791 15.5496 29.8055 15.6662L29.9877 17.1228L31.3517 16.2013Z" fill="#09B97D"/>
<path d="M31.6222 9.23245L31.6221 9.31716L31.6225 9.31716L31.6222 9.23245ZM27.9687 11.6739L27.8903 11.6418L27.8903 11.6418L27.9687 11.6739ZM35.5795 13.0794L35.4948 13.0811L35.4948 13.0811L35.5795 13.0794ZM31.7746 17.0756L31.7716 16.9909L31.7473 16.9918L31.7272 17.0054L31.7746 17.0756ZM29.8771 18.3577L29.9244 18.4281L29.9246 18.4279L29.8771 18.3577ZM29.6065 18.4401L29.6064 18.3554L29.6063 18.3554L29.6065 18.4401ZM29.4078 18.3971L29.443 18.3201L29.4425 18.3198L29.4078 18.3971ZM29.1283 18.0191L29.2124 18.0088L29.2123 18.0085L29.1283 18.0191ZM28.8703 15.9588L28.9543 15.9482L28.9506 15.9186L28.9292 15.8979L28.8703 15.9588ZM31.6223 16.1189L31.6224 16.2036L31.707 16.2035V16.1189H31.6223ZM31.3517 16.2013L31.3045 16.1309L31.3042 16.1311L31.3517 16.2013ZM31.6223 16.1185L31.6225 16.0338L31.5376 16.0337V16.1185H31.6223ZM34.5516 13.7028L34.4684 13.6872L34.4684 13.6872L34.5516 13.7028ZM32.693 10.4002L32.6628 10.4793L32.6628 10.4793L32.693 10.4002ZM29.0908 11.6203L29.0186 11.576L29.0186 11.576L29.0908 11.6203ZM29.6454 15.3647L29.589 15.4279L29.5895 15.4284L29.6454 15.3647ZM29.8055 15.6662L29.7214 15.6767L29.7214 15.6767L29.8055 15.6662ZM29.9877 17.1228L29.9036 17.1334L29.9208 17.2703L30.0351 17.193L29.9877 17.1228ZM31.6223 9.14773C29.9841 9.1459 28.508 10.1321 27.8903 11.6418L28.0471 11.706C28.6386 10.2604 30.0523 9.31541 31.6221 9.31716L31.6223 9.14773ZM35.6642 13.0778C35.6217 10.8892 33.8217 9.14008 31.6219 9.14773L31.6225 9.31716C33.7307 9.30983 35.4541 10.9858 35.4948 13.0811L35.6642 13.0778ZM31.7776 17.1602C33.9761 17.0834 35.7067 15.2664 35.6642 13.0778L35.4948 13.0811C35.5355 15.1763 33.8785 16.9172 31.7716 16.9909L31.7776 17.1602ZM29.9246 18.4279L31.822 17.1458L31.7272 17.0054L29.8297 18.2876L29.9246 18.4279ZM29.6065 18.5249C29.7197 18.5248 29.8304 18.4912 29.9244 18.4281L29.8299 18.2874C29.7639 18.3317 29.6861 18.3554 29.6064 18.3554L29.6065 18.5249ZM29.3726 18.4742C29.446 18.5077 29.5258 18.525 29.6066 18.5249L29.6063 18.3554C29.5499 18.3555 29.4942 18.3435 29.443 18.3201L29.3726 18.4742ZM29.0442 18.0293C29.0681 18.2249 29.193 18.3936 29.3731 18.4744L29.4425 18.3198C29.3162 18.2631 29.2291 18.1451 29.2124 18.0088L29.0442 18.0293ZM28.7862 15.9693L29.0442 18.0296L29.2123 18.0085L28.9543 15.9482L28.7862 15.9693ZM27.8903 11.6418C27.2726 13.1516 27.637 14.883 28.8113 16.0196L28.9292 15.8979C27.8044 14.8093 27.4557 13.1515 28.0471 11.706L27.8903 11.6418ZM31.6222 16.0342C31.5091 16.0343 31.3984 16.0679 31.3045 16.1309L31.3988 16.2716C31.4649 16.2274 31.5427 16.2037 31.6224 16.2036L31.6222 16.0342ZM31.5376 16.1185V16.1189H31.707V16.1185H31.5376ZM34.4684 13.6872C34.2133 15.0493 33.0165 16.0367 31.6225 16.0338L31.6222 16.2033C33.0972 16.2063 34.3647 15.1614 34.6349 13.7183L34.4684 13.6872ZM32.6628 10.4793C33.9643 10.9756 34.7234 12.3251 34.4684 13.6872L34.6349 13.7183C34.9051 12.2752 34.1007 10.8463 32.7232 10.321L32.6628 10.4793ZM29.163 11.6647C29.8892 10.4818 31.3613 9.983 32.6628 10.4793L32.7232 10.321C31.3459 9.7958 29.7876 10.3234 29.0186 11.576L29.163 11.6647ZM29.7017 15.3014C28.6634 14.377 28.437 12.8473 29.163 11.6647L29.0186 11.576C28.2496 12.8288 28.4896 14.4491 29.589 15.4279L29.7017 15.3014ZM29.8895 15.6558C29.8724 15.5185 29.8054 15.3923 29.7012 15.3009L29.5895 15.4284C29.6626 15.4924 29.7095 15.5807 29.7214 15.6767L29.8895 15.6558ZM30.0718 17.1123L29.8895 15.6557L29.7214 15.6767L29.9036 17.1334L30.0718 17.1123ZM31.3042 16.1311L29.9403 17.0526L30.0351 17.193L31.3991 16.2715L31.3042 16.1311Z" fill="#CED0D8"/>
<path fill-rule="evenodd" clip-rule="evenodd" d="M31.8068 11.2159C31.8773 11.2509 31.9343 11.3077 31.9694 11.3779L31.9764 11.3891L32.99 14.1587C33.0471 14.3147 32.9662 14.4871 32.8093 14.5439C32.6525 14.6006 32.4791 14.5202 32.4221 14.3642L32.1531 13.6291H31.2319L30.9629 14.3642C30.9059 14.5202 30.7325 14.6006 30.5757 14.5439C30.4188 14.4871 30.3379 14.3147 30.395 14.1587L31.4093 11.389L31.4157 11.3779C31.4248 11.3582 31.436 11.3395 31.4493 11.3223C31.4779 11.2726 31.5235 11.2348 31.5778 11.2158L31.589 11.2088C31.6029 11.2056 31.6169 11.2036 31.6311 11.2025C31.6709 11.1903 31.7135 11.1903 31.7534 11.2025C31.7676 11.2036 31.7817 11.2058 31.7956 11.2089L31.8068 11.2159ZM31.692 12.3701L31.4516 13.0273H31.9325L31.692 12.3701Z" fill="#09B97D"/>
<path d="M31.9694 11.3779L31.8932 11.4159L31.8976 11.4229L31.9694 11.3779ZM31.8068 11.2159L31.7616 11.288L31.7691 11.2917L31.8068 11.2159ZM31.9764 11.3891L32.056 11.36L32.0529 11.3516L32.0482 11.3441L31.9764 11.3891ZM32.99 14.1587L33.0696 14.1296L33.0696 14.1296L32.99 14.1587ZM32.8093 14.5439L32.7805 14.4642L32.7805 14.4642L32.8093 14.5439ZM32.4221 14.3642L32.5016 14.3351L32.5016 14.3351L32.4221 14.3642ZM32.1531 13.6291L32.2326 13.6L32.2123 13.5444H32.1531V13.6291ZM31.2319 13.6291V13.5444H31.1727L31.1524 13.6L31.2319 13.6291ZM30.9629 14.3642L30.8834 14.3351L30.8834 14.3351L30.9629 14.3642ZM30.5757 14.5439L30.6045 14.4642L30.6045 14.4642L30.5757 14.5439ZM30.395 14.1587L30.3154 14.1296L30.3154 14.1296L30.395 14.1587ZM31.4093 11.389L31.3361 11.3463L31.3323 11.3528L31.3297 11.3599L31.4093 11.389ZM31.4157 11.3779L31.4893 11.4208L31.4928 11.4132L31.4157 11.3779ZM31.4493 11.3223L31.517 11.3744L31.5227 11.3646L31.4493 11.3223ZM31.5778 11.2158L31.6058 11.2957L31.6148 11.2926L31.6228 11.2876L31.5778 11.2158ZM31.589 11.2088L31.5704 11.1261L31.5563 11.1293L31.544 11.137L31.589 11.2088ZM31.6311 11.2025L31.6372 11.287L31.6468 11.2863L31.6559 11.2835L31.6311 11.2025ZM31.7534 11.2025L31.7285 11.2835L31.7375 11.2863L31.7468 11.287L31.7534 11.2025ZM31.7956 11.2089L31.8406 11.1371L31.8283 11.1294L31.8141 11.1262L31.7956 11.2089ZM31.4516 13.0273L31.372 12.9982L31.3304 13.1121H31.4516V13.0273ZM31.692 12.3701L31.7716 12.341L31.692 12.1235L31.6125 12.341L31.692 12.3701ZM31.9325 13.0273V13.1121H32.0537L32.0121 12.9982L31.9325 13.0273ZM32.0452 11.34C32.0019 11.2533 31.9314 11.1832 31.8445 11.14L31.7691 11.2917C31.8231 11.3186 31.8668 11.3621 31.8936 11.4157L32.0452 11.34ZM32.0482 11.3441L32.0411 11.3329L31.8976 11.4229L31.9046 11.4341L32.0482 11.3441ZM33.0696 14.1296L32.056 11.36L31.8969 11.4182L32.9104 14.1878L33.0696 14.1296ZM32.8382 14.6236C33.0388 14.551 33.1428 14.33 33.0696 14.1296L32.9104 14.1878C32.9513 14.2994 32.8936 14.4233 32.7805 14.4642L32.8382 14.6236ZM32.3425 14.3933C32.4157 14.5934 32.6377 14.6961 32.8382 14.6236L32.7805 14.4642C32.6673 14.5052 32.5425 14.4469 32.5016 14.3351L32.3425 14.3933ZM32.0735 13.6582L32.3425 14.3933L32.5016 14.3351L32.2326 13.6L32.0735 13.6582ZM31.2319 13.7138H32.1531V13.5444H31.2319V13.7138ZM31.0425 14.3933L31.3115 13.6582L31.1524 13.6L30.8834 14.3351L31.0425 14.3933ZM30.5468 14.6236C30.7473 14.6961 30.9693 14.5934 31.0425 14.3933L30.8834 14.3351C30.8425 14.4469 30.7177 14.5052 30.6045 14.4642L30.5468 14.6236ZM30.3154 14.1296C30.2422 14.33 30.3462 14.551 30.5468 14.6236L30.6045 14.4642C30.4914 14.4233 30.4337 14.2994 30.4746 14.1878L30.3154 14.1296ZM31.3297 11.3599L30.3154 14.1296L30.4745 14.1878L31.4888 11.4181L31.3297 11.3599ZM31.3426 11.3352L31.3361 11.3463L31.4824 11.4317L31.4889 11.4206L31.3426 11.3352ZM31.3821 11.2706C31.365 11.2929 31.3504 11.317 31.3387 11.3426L31.4928 11.4132C31.4991 11.3993 31.5071 11.3861 31.5164 11.374L31.3821 11.2706ZM31.5499 11.1358C31.4764 11.1615 31.4146 11.2126 31.3759 11.28L31.5227 11.3646C31.5411 11.3325 31.5706 11.308 31.6058 11.2957L31.5499 11.1358ZM31.544 11.137L31.5329 11.144L31.6228 11.2876L31.634 11.2805L31.544 11.137ZM31.6249 11.118C31.6066 11.1194 31.5884 11.1221 31.5704 11.1261L31.6076 11.2914C31.6174 11.2892 31.6273 11.2877 31.6372 11.287L31.6249 11.118ZM31.7782 11.1215C31.7222 11.1043 31.6622 11.1043 31.6062 11.1215L31.6559 11.2835C31.6796 11.2763 31.7049 11.2763 31.7285 11.2835L31.7782 11.1215ZM31.8141 11.1262C31.7963 11.1222 31.7782 11.1195 31.7599 11.1181L31.7468 11.287C31.757 11.2878 31.7672 11.2893 31.7771 11.2915L31.8141 11.1262ZM31.8518 11.1441L31.8406 11.1371L31.7507 11.2807L31.7618 11.2877L31.8518 11.1441ZM31.5311 13.0564L31.7716 12.3992L31.6125 12.341L31.372 12.9982L31.5311 13.0564ZM31.9325 12.9426H31.4516V13.1121H31.9325V12.9426ZM31.6125 12.3992L31.853 13.0564L32.0121 12.9982L31.7716 12.341L31.6125 12.3992Z" fill="#CED0D8"/>
<path fill-rule="evenodd" clip-rule="evenodd" d="M17.8431 11.0849C19.4554 12.0426 20.1682 13.996 19.5488 15.7593L20.0604 17.9828C20.0975 18.1456 20.0469 18.3159 19.9268 18.4324C19.8066 18.549 19.6342 18.595 19.4715 18.554L17.4479 18.0445C15.7374 18.8156 13.7176 18.2841 12.6144 16.7725C11.5113 15.2609 11.6291 13.1862 12.8963 11.8077C14.1636 10.4292 16.2307 10.1272 17.8431 11.0849ZM18.5774 15.8343C18.5555 15.7407 18.5626 15.6427 18.5977 15.5531V15.5525C19.1955 14.0278 18.4373 12.3098 16.9043 11.7153C15.3712 11.1208 13.6439 11.8748 13.0461 13.3995C12.4483 14.9241 13.2064 16.6421 14.7394 17.2367C15.5311 17.5451 16.418 17.4992 17.1732 17.1105C17.2781 17.0563 17.3994 17.0424 17.514 17.0714L18.9444 17.4322L18.5774 15.8343Z" fill="#09B97D"/>
<path d="M19.5488 15.7593L19.4688 15.7312L19.4607 15.7544L19.4662 15.7783L19.5488 15.7593ZM17.8431 11.0849L17.8863 11.0121L17.8863 11.0121L17.8431 11.0849ZM20.0604 17.9828L20.143 17.9639L20.1429 17.9638L20.0604 17.9828ZM19.9268 18.4324L19.9858 18.4932L19.9858 18.4932L19.9268 18.4324ZM19.4715 18.554L19.4922 18.4719L19.4922 18.4719L19.4715 18.554ZM17.4479 18.0445L17.4686 17.9624L17.44 17.9552L17.4131 17.9673L17.4479 18.0445ZM12.6144 16.7725L12.6829 16.7225L12.6829 16.7225L12.6144 16.7725ZM12.8963 11.8077L12.8339 11.7504L12.8339 11.7504L12.8963 11.8077ZM18.5977 15.5531L18.6766 15.5841L18.6824 15.5691V15.5531H18.5977ZM18.5774 15.8343L18.6599 15.8154L18.6599 15.8151L18.5774 15.8343ZM18.5977 15.5525L18.5188 15.5215L18.513 15.5364V15.5525H18.5977ZM16.9043 11.7153L16.9349 11.6363L16.9349 11.6363L16.9043 11.7153ZM13.0461 13.3995L12.9672 13.3685L13.0461 13.3995ZM14.7394 17.2367L14.7701 17.1578L14.77 17.1577L14.7394 17.2367ZM17.1732 17.1105L17.2119 17.1858L17.212 17.1858L17.1732 17.1105ZM17.514 17.0714L17.4933 17.1535L17.4933 17.1535L17.514 17.0714ZM18.9444 17.4322L18.9237 17.5143L19.058 17.5482L19.027 17.4132L18.9444 17.4322ZM19.6287 15.7874C20.2616 13.9858 19.5332 11.9903 17.8863 11.0121L17.7998 11.1577C19.3776 12.095 20.0748 14.0062 19.4688 15.7312L19.6287 15.7874ZM20.1429 17.9638L19.6313 15.7403L19.4662 15.7783L19.9778 18.0018L20.1429 17.9638ZM19.9858 18.4932C20.1271 18.3561 20.1867 18.1557 20.143 17.964L19.9778 18.0017C20.0083 18.1355 19.9668 18.2756 19.8678 18.3716L19.9858 18.4932ZM19.4508 18.6362C19.6419 18.6843 19.8445 18.6303 19.9858 18.4932L19.8678 18.3716C19.7688 18.4677 19.6265 18.5057 19.4922 18.4719L19.4508 18.6362ZM17.4272 18.1267L19.4508 18.6362L19.4922 18.4719L17.4686 17.9624L17.4272 18.1267ZM12.546 16.8224C13.6729 18.3665 15.7359 18.9093 17.4827 18.1217L17.4131 17.9673C15.739 18.722 13.7623 18.2016 12.6829 16.7225L12.546 16.8224ZM12.8339 11.7504C11.5394 13.1585 11.419 15.2782 12.546 16.8224L12.6829 16.7225C11.6036 15.2436 11.7188 13.2138 12.9587 11.865L12.8339 11.7504ZM17.8863 11.0121C16.2396 10.0339 14.1284 10.3423 12.8339 11.7504L12.9587 11.865C14.1987 10.5161 16.2218 10.2204 17.7998 11.1577L17.8863 11.0121ZM18.5189 15.5222C18.4774 15.6277 18.4691 15.7432 18.4949 15.8536L18.6599 15.8151C18.6419 15.7382 18.6477 15.6576 18.6766 15.5841L18.5189 15.5222ZM18.513 15.5525V15.5531H18.6824V15.5525H18.513ZM16.8736 11.7943C18.3632 12.372 19.0993 14.0408 18.5188 15.5215L18.6766 15.5834C19.2916 14.0147 18.5113 12.2477 16.9349 11.6363L16.8736 11.7943ZM13.125 13.4304C13.7056 11.9494 15.3838 11.2165 16.8736 11.7943L16.9349 11.6363C15.3587 11.025 13.5822 11.8001 12.9672 13.3685L13.125 13.4304ZM14.77 17.1577C13.2804 16.58 12.5444 14.9111 13.125 13.4304L12.9672 13.3685C12.3522 14.9372 13.1323 16.7042 14.7087 17.3157L14.77 17.1577ZM17.1344 17.0352C16.4008 17.4127 15.5392 17.4574 14.7701 17.1578L14.7086 17.3156C15.5229 17.6329 16.4352 17.5856 17.2119 17.1858L17.1344 17.0352ZM17.5348 16.9892C17.4002 16.9552 17.2576 16.9715 17.1343 17.0352L17.212 17.1858C17.2986 17.1411 17.3987 17.1296 17.4933 17.1535L17.5348 16.9892ZM18.9651 17.35L17.5348 16.9892L17.4933 17.1535L18.9237 17.5143L18.9651 17.35ZM18.4948 15.8533L18.8618 17.4511L19.027 17.4132L18.6599 15.8154L18.4948 15.8533Z" fill="#CED0D8"/>
<path d="M16.9236 16.1852C17.0906 16.1797 17.2214 16.0406 17.2159 15.8745C17.2103 15.7085 17.0705 15.5784 16.9035 15.5839C16.7563 15.5815 16.6099 15.5613 16.4675 15.5238C16.7845 15.1887 16.9737 14.7538 17.0022 14.2945H17.3163C17.4832 14.2945 17.6185 14.1599 17.6185 13.9939C17.6185 13.8278 17.4832 13.6933 17.3163 13.6933H16.2619V13.1942C16.2619 13.0282 16.1265 12.8936 15.9596 12.8936C15.7926 12.8936 15.6573 13.0282 15.6573 13.1942V13.6933H14.6032C14.4363 13.6933 14.301 13.8278 14.301 13.9939C14.301 14.1599 14.4363 14.2945 14.6032 14.2945H16.3975C16.365 14.6662 16.1806 15.0083 15.8874 15.241C15.7094 15.0978 15.5759 14.9073 15.5027 14.6917C15.4674 14.5901 15.3804 14.515 15.2744 14.4946C15.1684 14.4742 15.0595 14.5116 14.9887 14.5927C14.9179 14.6738 14.896 14.7863 14.9312 14.8878C15.0143 15.1304 15.1484 15.3527 15.3246 15.5397C15.2157 15.578 15.1044 15.6091 14.9914 15.6329C14.8384 15.6629 14.7335 15.8038 14.7494 15.9581C14.7653 16.1124 14.8968 16.2293 15.0528 16.2277C15.0736 16.2278 15.0944 16.2257 15.1147 16.2212C15.3815 16.1656 15.6391 16.0725 15.8795 15.9448C16.1884 16.0971 16.5273 16.1794 16.872 16.1858L16.9236 16.1852Z" fill="#09B97D" stroke="#CED0D8" stroke-width="0.16943"/>
</svg>
