<svg width="28" height="28" viewBox="0 0 28 28" fill="none" xmlns="http://www.w3.org/2000/svg">
<g id="conversation">
<path id="Icon" fill-rule="evenodd" clip-rule="evenodd" d="M13.5411 3.21176L4.58416 10.2486C4.34174 10.4391 4.19995 10.7319 4.19995 11.0422V22.1001C4.19995 23.7657 5.53667 25.1159 7.1856 25.1159H11.1505C11.1558 25.116 11.161 25.1161 11.1663 25.1161L11.1684 25.1159H17.1218C17.1271 25.116 17.1323 25.1161 17.1376 25.1161C17.1429 25.1161 17.1481 25.116 17.1534 25.1159H21.1186C22.7676 25.1159 24.1043 23.7657 24.1043 22.1001V11.0422C24.1043 10.7319 23.9625 10.4391 23.7201 10.2486L14.7631 3.21176C14.4037 2.92941 13.9005 2.92941 13.5411 3.21176ZM18.1328 23.1054H21.1186C21.6683 23.1054 22.1138 22.6554 22.1138 22.1002V11.5338L14.1521 5.27797L6.19036 11.5328V22.1002C6.19036 22.6157 6.57455 23.0406 7.06951 23.0987L7.18557 23.1054H10.1711V14.0581C10.1711 13.5426 10.5553 13.1177 11.0502 13.0596L11.1663 13.0528H17.1376C17.648 13.0528 18.0686 13.4409 18.1261 13.9409L18.1328 14.0581V23.1054ZM12.1615 23.1054H16.1424V15.0634H12.1615V23.1054Z" fill="#546DEF"/>
</g>
</svg>
