<svg width="49" height="48" viewBox="0 0 49 48" fill="none" xmlns="http://www.w3.org/2000/svg">
<rect x="0.0894165" y="0.785156" width="48.1472" height="47.142" rx="12" fill="#ECF6FA"/>
<path fill-rule="evenodd" clip-rule="evenodd" d="M37.514 29.3381L36.7511 29.1203L36.7578 29.0978C36.9174 28.5642 36.9192 27.9971 36.7631 27.4625C37.5404 23.3006 36.3297 18.8347 33.1291 15.621C30.6292 13.1109 27.3044 11.7285 23.767 11.7285C20.2297 11.7285 16.9049 13.1109 14.4051 15.621C11.0538 18.9861 9.88401 23.724 10.8941 28.0484C10.8669 28.402 10.9049 28.7574 11.0064 29.0978L11.0131 29.1203L10.2502 29.3381C9.65129 29.5091 9.30725 30.1234 9.48171 30.7102L10.545 34.2864C10.7195 34.8732 11.3464 35.2103 11.9453 35.0394L12.7082 34.8216L12.7149 34.8442C12.9394 35.6004 13.4614 36.2383 14.1661 36.6172C14.8707 36.9961 15.7002 37.085 16.4717 36.8643L18.2412 36.3592C19.0497 36.1274 19.5141 35.2982 19.2794 34.5055L16.7294 25.9288C16.4924 25.137 15.6465 24.6821 14.8375 24.9115L13.0681 25.4166C12.5969 25.5504 12.1663 25.7952 11.8139 26.1296C11.4938 22.6754 12.6442 19.1085 15.2685 16.467L16.13 17.3321C16.7216 17.9379 17.6801 18.0194 18.3693 17.5224C21.5728 15.1858 25.9613 15.1858 29.1648 17.5224C29.854 18.0194 30.8125 17.938 31.4041 17.3321L32.2656 16.467C34.8431 19.0614 35.9994 22.5486 35.7365 25.9449C35.4284 25.7037 35.0749 25.5243 34.6961 25.4166L32.9266 24.9115C32.1177 24.6821 31.2718 25.137 31.0348 25.9288L28.4847 34.5055C28.25 35.2982 28.7145 36.1275 29.523 36.3592L31.2924 36.8644C32.064 37.085 32.8934 36.996 33.5981 36.6171C34.3027 36.2383 34.8247 35.6005 35.0492 34.8442L35.056 34.8216L35.8189 35.0394C36.1065 35.1215 36.4156 35.0883 36.6782 34.9471C36.9408 34.8059 37.1354 34.5682 37.2191 34.2864L38.2824 30.7102C38.4569 30.1234 38.1129 29.5091 37.514 29.3381ZM12.3323 27.4154C12.537 27.0467 12.8695 26.7618 13.2698 26.6122L15.5048 34.1293C15.5658 34.3345 15.7339 34.4921 15.9457 34.5429C16.1575 34.5938 16.3809 34.53 16.5317 34.3756C16.6825 34.2213 16.7378 33.9998 16.6768 33.7947L14.4398 26.2708L15.1793 26.0597C15.2064 26.0519 15.2346 26.0479 15.2628 26.0479C15.3146 26.0482 15.3655 26.0611 15.4109 26.0856C15.4819 26.1233 15.5347 26.1872 15.5576 26.2631L18.1076 34.8398C18.1524 34.9981 18.0603 35.1625 17.9 35.2105L16.1305 35.7156C15.1712 35.9884 14.1676 35.4487 13.8872 34.5093L12.1787 28.7629C12.0442 28.3117 12.0995 27.8265 12.3323 27.4154ZM31.6345 35.7159C32.5938 35.9885 33.5973 35.4489 33.8778 34.5096L35.5864 28.7632C35.8511 27.8619 35.3555 26.9142 34.4542 26.5985L32.2151 34.1296C32.1208 34.4467 31.7819 34.6289 31.4583 34.5365C31.1346 34.4441 30.9487 34.1121 31.043 33.795L33.2836 26.2592L32.5857 26.06C32.5586 26.0521 32.5305 26.0482 32.5022 26.0481C32.4504 26.0484 32.3995 26.0614 32.3542 26.0858C32.2831 26.1236 32.2303 26.1875 32.2074 26.2634L29.6574 34.84C29.6126 34.9984 29.7047 35.1628 29.8651 35.2108L31.6345 35.7159Z" fill="#009FDA"/>
</svg>
