<svg width="49" height="48" viewBox="0 0 49 48" fill="none" xmlns="http://www.w3.org/2000/svg">
<rect x="0.570984" y="0.785156" width="48.1472" height="47.142" rx="12" fill="#F4F5FA"/>
<path d="M13.6324 16.7162V15.3916C13.6324 15.3197 13.7018 15.2735 13.7613 15.2992L24.3293 19.4836C24.3491 19.4938 24.3739 19.4938 24.3987 19.4836L34.9667 15.2992C35.0312 15.2735 35.0956 15.3248 35.0956 15.3916V16.7162" stroke="#546DEF" stroke-width="0.84715" stroke-linecap="round" stroke-linejoin="round"/>
<path d="M14.8514 15.669V14.3187C14.8514 14.2417 14.9308 14.1955 14.9952 14.2314L24.3191 19.4683C24.3488 19.4837 24.3835 19.4837 24.4132 19.4683L33.7321 14.2263C33.7966 14.1903 33.8759 14.2365 33.8759 14.3135V15.669" stroke="#546DEF" stroke-width="0.84715" stroke-linecap="round" stroke-linejoin="round"/>
<path d="M16.2202 14.8424V13.5126C16.2202 13.4304 16.3094 13.3842 16.3738 13.4304L24.3048 19.4529C24.3395 19.4786 24.3841 19.4786 24.4188 19.4529L32.3498 13.4304C32.4142 13.3842 32.5035 13.4304 32.5035 13.5126V14.8526" stroke="#546DEF" stroke-width="0.84715" stroke-linecap="round" stroke-linejoin="round"/>
<path fill-rule="evenodd" clip-rule="evenodd" d="M36.1861 32.2833L24.4581 35.292C24.4086 35.3022 24.364 35.2663 24.364 35.2149V19.5709C24.364 19.5247 24.3937 19.4836 24.4383 19.4733L36.1415 16.4698C36.201 16.4544 36.2604 16.5006 36.2604 16.5673V32.1857C36.2604 32.2319 36.2307 32.273 36.1861 32.2833Z" stroke="#546DEF" stroke-width="1.35544" stroke-linecap="round" stroke-linejoin="round"/>
<path fill-rule="evenodd" clip-rule="evenodd" d="M24.2898 35.2971L12.5421 32.2833C12.4975 32.273 12.4677 32.2319 12.4677 32.1857V16.5673C12.4677 16.5006 12.5272 16.4544 12.5867 16.4698L24.2898 19.4733C24.3345 19.4836 24.3642 19.5247 24.3642 19.5709V35.2355C24.3642 35.2817 24.3295 35.3074 24.2898 35.2971Z" stroke="#546DEF" stroke-width="1.35544" stroke-linecap="round" stroke-linejoin="round"/>
<path fill-rule="evenodd" clip-rule="evenodd" d="M33.2071 30.9897L27.9231 32.2938C27.8636 32.3092 27.8041 32.263 27.8041 32.1962V29.3929C27.8041 29.3467 27.8339 29.3056 27.8785 29.2954L33.1625 27.9913C33.222 27.9759 33.2815 28.0221 33.2815 28.0888V30.8921C33.2815 30.9383 33.2517 30.9794 33.2071 30.9897Z" stroke="#546DEF" stroke-width="1.35544" stroke-linecap="round" stroke-linejoin="round"/>
<path d="M27.8091 30.3525L33.2815 28.9971" stroke="#546DEF" stroke-width="0.16943" stroke-linecap="round" stroke-linejoin="round"/>
<path d="M27.8091 31.2878L33.2815 29.9375" stroke="#546DEF" stroke-width="0.16943" stroke-linecap="round" stroke-linejoin="round"/>
</svg>
