<svg width="34" height="28" viewBox="0 0 34 28" fill="none" xmlns="http://www.w3.org/2000/svg">
<g id="Group">
<path id="Vector" fill-rule="evenodd" clip-rule="evenodd" d="M17.2845 10.7159H6.77827C6.37983 10.7159 5.9826 11.1132 5.9826 11.5104C5.9826 11.888 6.37983 12.1594 6.77827 12.1594H17.2845C17.6622 12.1594 17.9335 11.8868 17.9335 11.5104C17.9347 11.1144 17.6622 10.7159 17.2845 10.7159ZM17.2845 14.7774H6.77827C6.37983 14.7774 5.9826 15.0499 5.9826 15.4472C5.9826 15.8236 6.37983 16.222 6.77827 16.222H17.2845C17.6622 16.222 17.9335 15.8236 17.9335 15.4472C17.9347 15.0487 17.6622 14.7774 17.2845 14.7774ZM31.6016 2.44882H16.0928C16.0928 2.44882 16.0928 2.57471 15.9669 2.57471C15.9669 2.57471 15.9669 2.57471 15.9669 2.72138V3.37038V4.29071H15.0466H14.9207H13.9992V3.37038V2.72138C13.9992 2.44882 14.1251 2.19826 14.251 1.92571C14.251 1.67515 14.5235 1.4026 14.6482 1.27671C14.7728 1.00416 15.0454 0.878266 15.3179 0.753599C15.5697 0.606932 15.8411 0.606934 16.0928 0.606934H31.6016C31.8534 0.606934 32.1247 0.606932 32.3973 0.753599C32.649 0.878266 32.8996 1.00538 33.0463 1.27671C33.2981 1.4026 33.4447 1.67515 33.4447 1.92571C33.5694 2.19826 33.6953 2.44882 33.6953 2.72138V13.4794C33.6953 13.8558 33.5694 14.1272 33.4447 14.253C33.4447 14.5256 33.2981 14.7762 33.0463 14.9228L32.7737 15.1734C32.6478 15.2993 32.5219 15.2993 32.3973 15.4459C32.1247 15.5706 31.8534 15.5706 31.6016 15.5706H30.8059V17.9368C30.8059 18.0627 30.8059 18.334 30.68 18.4599C30.68 18.5858 30.68 18.7117 30.5542 18.8572C30.4075 18.983 30.4075 19.1089 30.2816 19.1089C30.1557 19.2348 30.009 19.3815 29.8844 19.3815L29.7585 19.5074C29.6326 19.5074 29.6326 19.5074 29.6326 19.5074H29.508C29.508 19.5074 29.508 19.5074 29.3613 19.5074C29.3613 19.5074 29.3613 19.5074 29.2354 19.5074C29.2354 19.5074 29.0887 19.5074 28.9628 19.5074C28.8369 19.5074 28.837 19.5074 28.7123 19.3815C28.5656 19.3815 28.4397 19.2348 28.4397 19.2348C28.3138 19.2348 28.3138 19.2348 28.3138 19.1089H28.1879V18.983L24.5042 15.2993L24.2316 15.0487V14.7762V14.6503V12.4112L25.6763 14.0025L28.9628 17.1412V14.6515V14.5256V13.7299H29.8844H31.6004C31.6004 13.7299 31.6004 13.7299 31.7263 13.604C31.7263 13.604 31.7263 13.604 31.7263 13.4782V2.72016C31.7263 2.57349 31.7263 2.57349 31.7263 2.57349C31.6016 2.57471 31.6016 2.44882 31.6016 2.44882ZM21.7432 5.33693H1.64984C1.00207 5.33693 0.331055 5.98594 0.331055 6.7816V20.6795C0.331055 21.4739 1.00084 22.1242 1.64984 22.1242H13.2035L18.2061 26.98C18.3307 27.1059 18.4566 27.2526 18.7292 27.2526C18.7292 27.2526 18.8551 27.2526 18.9809 27.1059C19.2535 27.1059 19.3782 26.7295 19.3782 26.4582V22.1254H21.7432C22.5388 22.1254 23.0619 21.4764 23.0619 20.6807V6.7816C23.0619 5.98594 22.5388 5.33693 21.7432 5.33693Z" fill="white"/>
</g>
</svg>
