<svg width="28" height="28" viewBox="0 0 28 28" fill="none" xmlns="http://www.w3.org/2000/svg">
<g id="hugeicons:pause">
<path id="Vector (Stroke)" fill-rule="evenodd" clip-rule="evenodd" d="M6.34584 5.47396C5.95272 5.52691 5.8041 5.61582 5.71138 5.70896L5.70957 5.71078C5.61585 5.80428 5.5269 5.95366 5.47396 6.34672C5.41811 6.76146 5.41651 7.32043 5.41651 8.16651V19.8332C5.41651 20.6798 5.41811 21.2391 5.47396 21.6538C5.52691 22.047 5.61582 22.1956 5.70896 22.2883L5.71078 22.2901C5.80438 22.3839 5.95359 22.4728 6.34631 22.5257C6.76088 22.5816 7.31982 22.5832 8.16651 22.5832C9.01318 22.5832 9.57243 22.5816 9.98717 22.5257C10.3803 22.4728 10.5289 22.3839 10.6216 22.2907L10.6234 22.2889C10.7172 22.1954 10.8061 22.046 10.8591 21.653C10.9149 21.2382 10.9165 20.6792 10.9165 19.8332V8.16651C10.9165 7.31983 10.9149 6.76058 10.8591 6.34584C10.8061 5.95272 10.7172 5.8041 10.6241 5.71138L10.6222 5.70957C10.5286 5.61575 10.3794 5.52687 9.9867 5.47396C9.57213 5.41811 9.01319 5.41651 8.16651 5.41651C7.31983 5.41651 6.76058 5.41811 6.34584 5.47396ZM8.11553 3.91651C8.13247 3.91651 8.14946 3.91651 8.16651 3.91651C8.18356 3.91651 8.20056 3.91651 8.21751 3.91651C8.99937 3.91647 9.66038 3.91644 10.187 3.98739C10.7464 4.06276 11.2648 4.23037 11.6832 4.64922C12.1027 5.06734 12.2703 5.58628 12.3456 6.14563C12.4166 6.67236 12.4165 7.33364 12.4165 8.11554V19.8841C12.4165 20.6655 12.4166 21.3264 12.3456 21.8532C12.2703 22.4125 12.1028 22.9312 11.6839 23.3497C11.2658 23.7694 10.7468 23.937 10.1874 24.0123C9.66065 24.0832 8.99936 24.0832 8.21746 24.0832H8.1155C7.33364 24.0832 6.67263 24.0832 6.14604 24.0123C5.58617 23.9369 5.06746 23.7691 4.64891 23.3496L5.17984 22.8198L4.65072 23.3514C4.23053 22.9331 4.06277 22.4138 3.98738 21.854C3.91644 21.3273 3.91647 20.666 3.91651 19.8841L3.91651 8.16651C3.91651 8.14948 3.91651 8.1325 3.91651 8.11559C3.91647 7.33423 3.91644 6.67323 3.98738 6.1465C4.06273 5.58709 4.23026 5.06832 4.64921 4.64981C5.06733 4.23029 5.58628 4.06272 6.14563 3.98738C6.67236 3.91644 7.33364 3.91647 8.11553 3.91651ZM18.0125 5.47396C17.6194 5.52691 17.4708 5.61582 17.378 5.70896L17.3762 5.71077C17.2825 5.80428 17.1936 5.95366 17.1406 6.34672C17.0848 6.76146 17.0832 7.32043 17.0832 8.16651V19.8332C17.0832 20.6798 17.0848 21.2391 17.1406 21.6538C17.1936 22.047 17.2825 22.1956 17.3756 22.2883L17.3774 22.2901C17.4709 22.3838 17.6203 22.4728 18.0134 22.5257C18.4281 22.5816 18.9871 22.5832 19.8332 22.5832C20.6792 22.5832 21.2382 22.5816 21.653 22.5257C22.046 22.4728 22.1954 22.3838 22.2889 22.2901L22.2901 22.2889C22.3838 22.1954 22.4728 22.046 22.5257 21.653C22.5816 21.2382 22.5832 20.6792 22.5832 19.8332V8.16651C22.5832 7.31983 22.5816 6.76058 22.5257 6.34584C22.4728 5.95272 22.3839 5.8041 22.2907 5.71138L22.2889 5.70957C22.1953 5.61574 22.0461 5.52687 21.6534 5.47396C21.2388 5.41811 20.6799 5.41651 19.8332 5.41651C18.9865 5.41651 18.4272 5.41811 18.0125 5.47396ZM19.7822 3.91651H19.8842C20.666 3.91647 21.327 3.91644 21.8536 3.98739C22.4131 4.06275 22.9314 4.23034 23.3498 4.64911C23.7694 5.06725 23.937 5.58623 24.0123 6.14563C24.0832 6.67236 24.0832 7.33365 24.0832 8.11555V19.8841C24.0832 20.6655 24.0832 21.3264 24.0123 21.8532C23.9369 22.4127 23.7693 22.9316 23.3502 23.3502C22.9316 23.7693 22.4127 23.9369 21.8532 24.0123C21.3264 24.0832 20.6655 24.0832 19.8841 24.0832H19.7823C19.0009 24.0832 18.3399 24.0832 17.8132 24.0123C17.2534 23.9369 16.7342 23.7692 16.3156 23.3496C15.8967 22.9316 15.7293 22.413 15.654 21.854C15.5831 21.3273 15.5831 20.666 15.5832 19.8841V8.11559C15.5831 7.33423 15.5831 6.67323 15.654 6.1465C15.7294 5.58669 15.8972 5.06757 16.3168 4.64891L16.8465 5.17984L16.315 4.65072C16.7333 4.23053 17.2525 4.06277 17.8123 3.98738C18.339 3.91644 19.0003 3.91647 19.7822 3.91651Z" fill="white"/>
</g>
</svg>
