<svg width="28" height="28" viewBox="0 0 28 28" fill="none" xmlns="http://www.w3.org/2000/svg">
<g id="conversation">
<g id="Group">
<path id="Vector" fill-rule="evenodd" clip-rule="evenodd" d="M11.5083 8.61175C11.5083 5.50987 14.3249 2.97762 17.9955 2.97762C20.918 2.97762 23.9149 5.50987 23.9149 8.61175C23.9149 11.6086 21.562 14.1557 17.9955 14.1557C17.5318 14.1557 16.3925 14.0507 15.9288 13.9606L13.8611 15.3694V13.2116C12.4366 12.0881 11.5083 10.5892 11.5083 8.61175ZM17.9054 7.38324C18.1758 7.38324 18.4601 7.57837 18.7445 7.77262C18.9396 7.952 19.0289 8.23725 19.0289 8.61175C19.0289 8.89612 18.9388 9.18049 18.7445 9.36162C18.4601 9.55674 18.1758 9.73612 17.9054 9.73612C17.621 9.73612 17.3366 9.55674 17.0514 9.36162C16.872 9.18137 16.781 8.897 16.781 8.61175C16.781 8.23725 16.872 7.952 17.0514 7.77262C17.3366 7.5775 17.621 7.38324 17.9054 7.38324ZM21.0974 7.38324C21.3826 7.38324 21.667 7.57837 21.8473 7.77262C22.0424 7.952 22.2226 8.23725 22.2226 8.61175C22.2226 8.89612 22.0424 9.18049 21.8473 9.36162C21.6679 9.55674 21.3835 9.73612 21.0974 9.73612C20.7229 9.73612 20.4385 9.55674 20.2443 9.36162C20.064 9.18137 19.9739 8.897 19.9739 8.61175C19.9739 8.23725 20.0631 7.952 20.2443 7.77262C20.4385 7.5775 20.7229 7.38324 21.0974 7.38324ZM14.6994 7.38324C15.0739 7.38324 15.3583 7.57837 15.5534 7.77262C15.7485 7.952 15.8386 8.23725 15.8386 8.61175C15.8386 8.89612 15.7485 9.18049 15.5534 9.36162C15.3583 9.55674 15.0739 9.73612 14.6994 9.73612C14.415 9.73612 14.1446 9.55674 13.9504 9.36162C13.771 9.18137 13.5759 8.897 13.5759 8.61175C13.5759 8.23725 13.771 7.952 13.9504 7.77262C14.1455 7.5775 14.415 7.38324 14.6994 7.38324ZM7.26714 13.6762C9.33476 15.4744 8.58576 16.2234 7.83676 17.3469C7.37214 18.0967 9.06526 19.5046 10.7584 20.6281C12.4366 21.7674 14.415 22.7859 14.8945 21.9468C15.6435 20.9125 16.1081 19.9692 18.4601 21.1977C20.8121 22.4114 19.4944 23.8201 18.7445 24.9585C17.9054 26.1721 13.8603 25.9927 9.24465 22.8909C4.6439 19.8791 2.86152 16.1184 3.70065 14.9047C4.3604 13.7812 5.19951 11.998 7.26714 13.6762ZM16.018 15.19C16.4975 15.2801 17.5309 15.3702 17.9955 15.3702C22.2218 15.3702 25.0533 12.1782 25.0533 8.52249C25.0533 4.85099 21.562 1.75 17.9955 1.75C13.771 1.75 10.369 4.85099 10.369 8.52249C10.369 10.6802 11.1329 12.4626 12.7368 13.7821V17.0634L16.018 15.19Z" fill="white"/>
</g>
</g>
</svg>
