<svg width="102" height="98" viewBox="0 0 102 98" fill="none" xmlns="http://www.w3.org/2000/svg">
<g id="Group">
<g id="Group_2">
<g id="Group_3">
<g id="Group_4">
<g id="Group_5">
<g id="Group_6">
<path id="Vector" d="M4.33095 40.5439C4.33865 40.5353 4.34719 40.5258 4.35661 40.5154C4.41367 40.4524 4.50254 40.3578 4.6281 40.2332C4.87921 39.9839 5.27704 39.6145 5.86055 39.1382C7.02761 38.1858 8.93727 36.8061 11.9011 35.1053C14.8562 33.4096 21.0673 31.1209 27.2879 29.0371C33.503 26.955 39.7105 25.0829 42.6471 24.2195C48.0095 22.643 60.2543 17.1584 62.8909 15.9774C63.0378 15.9116 63.1548 15.8592 63.2392 15.8215L86.05 72.5442L55.8816 85.6585C44.8482 86.7411 36.4525 86.1294 30.7797 85.1615C27.9412 84.6772 25.7854 84.1039 24.3226 83.6095C23.5909 83.3621 23.0345 83.1352 22.6535 82.95C22.4628 82.8572 22.3188 82.7762 22.2197 82.7097C22.17 82.6764 22.1342 82.6484 22.1101 82.6261C22.0883 82.6059 22.0822 82.5959 22.0821 82.596C22.082 82.5961 22.0823 82.5965 22.0827 82.5975C21.9321 82.2508 17.4859 71.7181 13.0766 61.27C10.8722 56.0464 8.67717 50.8445 7.03326 46.9485L5.04845 42.2445L4.493 40.928L4.34673 40.5814L4.33095 40.5439Z" stroke="#546DEF" stroke-width="0.284836"/>
</g>
<g id="Group_7">
<path id="Vector_2" d="M5.12984 37.436C5.13828 37.4268 5.14768 37.4166 5.15809 37.4055C5.21823 37.341 5.31179 37.2442 5.44379 37.1165C5.7078 36.8611 6.12555 36.4824 6.73721 35.9932C7.96057 35.0149 9.95943 33.5948 13.0549 31.8356C16.1419 30.0812 22.6108 27.6817 29.0851 25.4891C35.5541 23.2983 42.0122 21.3195 45.0669 20.4058C50.6452 18.7372 63.4134 13.0246 66.1584 11.7965C66.314 11.7269 66.4374 11.6717 66.5254 11.6324L89.3349 68.5314L57.8841 82.2031C46.4365 83.4556 37.7464 82.9601 31.8828 82.0657C28.949 81.6182 26.7237 81.0709 25.2152 80.5933C24.4606 80.3543 23.8873 80.1334 23.4953 79.952C23.2989 79.8611 23.1509 79.7815 23.0491 79.7158C22.9982 79.6829 22.9615 79.6552 22.9369 79.6332C22.9153 79.6137 22.9093 79.6041 22.9091 79.6042C22.7428 79.2206 18.2975 68.6775 13.8891 58.219C11.6811 52.9808 9.48254 47.7643 7.83601 43.8574L5.84803 39.1402L5.2917 37.8201L5.1452 37.4725L5.12984 37.436Z" stroke="#546DEF" stroke-width="0.284836"/>
</g>
<path id="Vector_3" d="M66.6028 11.442C65.9394 11.8007 51.2903 18.6947 45.0261 20.2689C38.8396 21.8238 19.1868 28.1865 12.9846 31.7114C6.78234 35.2363 4.96379 37.4081 4.96379 37.4081C4.96379 37.4081 22.4763 78.9654 22.7794 79.6625C23.0825 80.3594 34.9812 84.8554 57.9212 82.3419L89.5187 68.6064L66.6028 11.442Z" stroke="#546DEF" stroke-width="1.42418" stroke-miterlimit="10"/>
</g>
<g id="Group_8">
<g id="Group_9">
<path id="Vector_4" d="M32.6116 68.3576L32.6848 68.3386L33.3199 68.1737L33.9551 68.0087L34.0149 67.9932C33.9252 67.8986 33.836 67.8035 33.7474 67.7078M32.6116 68.3576L33.7474 67.7078M32.6116 68.3576C32.6491 68.2316 32.6849 68.105 32.7191 67.9779L32.7191 67.9779C32.7887 67.7194 32.9612 67.5595 33.1504 67.5079C33.3379 67.4568 33.561 67.5064 33.7474 67.7078M32.6116 68.3576L33.7474 67.7078M56.9528 82.9672L57.0059 82.835C55.0638 82.0548 53.128 81.262 51.213 80.4215C44.8726 77.6385 38.6811 74.2744 33.7713 69.3631C33.9028 68.9744 34.0214 68.5811 34.1284 68.1836L34.1434 68.128C35.4059 69.4444 36.7752 70.6542 38.2167 71.7693C43.9806 76.228 50.7628 79.0999 57.456 81.7883C57.6316 81.8589 57.7254 81.9738 57.766 82.0979C57.808 82.2259 57.7968 82.3754 57.7385 82.5125C57.6802 82.6496 57.579 82.7645 57.4542 82.8276C57.3327 82.8889 57.1811 82.9054 57.0059 82.835L56.9528 82.9672ZM33.4443 69.4383C33.1869 70.1759 32.8819 70.8947 32.5208 71.5909L32.6472 71.6565L32.5208 71.5909C30.5081 75.4711 27.0857 78.5869 22.9786 80.1083C22.8016 80.1739 22.6494 80.1536 22.5282 80.089C22.4038 80.0226 22.3044 79.9052 22.2485 79.7671C22.1926 79.6289 22.1844 79.48 22.2286 79.3541C22.2714 79.2322 22.367 79.1205 22.544 79.0549C23.6143 78.6585 24.6444 78.159 25.6073 77.5413C25.6074 77.5413 25.6074 77.5413 25.6074 77.5413L33.4443 69.4383ZM32.9877 68.5542L33.3915 68.4494L33.7881 68.3464C33.7131 68.6119 33.6328 68.8753 33.5467 69.1364C33.3584 68.9447 33.1721 68.7507 32.9877 68.5542Z" fill="#546DEF" stroke="#546DEF" stroke-width="0.284836"/>
</g>
</g>
</g>
<g id="Group_10">
<g id="Group_11">
<path id="Vector_5" d="M73.9717 20.9871L67.8965 23.6281C63.4976 25.5402 58.3815 23.5244 56.4695 19.1255L55.811 17.6106L55.6804 17.6674L55.811 17.6106C53.899 13.2119 55.9148 8.09591 60.3137 6.18356L66.3888 3.54256C70.7878 1.63046 75.9038 3.64623 77.8159 8.04517L78.4743 9.56002C80.3864 13.959 78.3707 19.075 73.9717 20.9871Z" stroke="#546DEF" stroke-width="0.284836"/>
<path id="Vector_6" d="M66.7525 27.4799L64.617 23.1697L69.728 22.1201L67.3256 27.51C67.1892 27.726 66.867 27.7108 66.7525 27.48C66.7525 27.48 66.7525 27.48 66.7525 27.4799Z" stroke="#546DEF" stroke-width="0.284836"/>
</g>
</g>
<path id="Vector_7" d="M55.0239 14.0756C55.1 10.6493 57.1258 7.41344 60.4753 5.95754L66.1139 3.50645C70.7055 1.51065 76.0456 3.61463 78.0417 8.20607L78.5105 9.2842C80.5063 13.8757 78.4023 19.2159 73.8109 21.212L69.442 23.1111L67.452 27.5761C67.2601 27.8957 66.7907 27.8767 66.625 27.5428L65.0689 24.4021C61.3878 24.6092 57.8001 22.5422 56.2444 18.9632L55.7756 17.8851C55.2356 16.6434 54.9956 15.3463 55.0239 14.0756Z" stroke="#546DEF" stroke-width="1.42418" stroke-miterlimit="10"/>
</g>
<g id="Group_12">
<g id="Group_13">
<path id="Vector_8" d="M73.8836 17.952C73.8069 18.0006 73.7577 18.0897 73.7462 18.1986C73.7345 18.3084 73.7637 18.4194 73.8207 18.494L73.8836 17.952ZM73.8836 17.952C75.2322 17.0985 76.1372 15.7223 76.3612 14.1542M73.8836 17.952L76.3612 14.1542M76.3612 14.1542C76.3798 14.0241 76.4413 13.9431 76.5165 13.8954C76.595 13.8455 76.6978 13.8263 76.8012 13.8413C76.9046 13.8564 76.998 13.9042 77.0596 13.9748C77.1186 14.0423 77.155 14.1379 77.1363 14.2684C76.8881 16.006 75.8652 17.6202 74.3804 18.5599C74.1809 18.6861 73.9524 18.6665 73.8207 18.4941L76.3612 14.1542Z" fill="#546DEF" stroke="#546DEF" stroke-width="0.284836"/>
</g>
</g>
<g id="Group_14">
<g id="Group_15">
<path id="Vector_9" d="M72.8108 18.5294L72.8107 18.5296L72.8189 18.5329L72.8743 18.5548L72.9276 18.5758C72.988 18.6021 73.0379 18.64 73.0787 18.6909C73.0893 18.7097 73.1006 18.7295 73.1118 18.749C73.1212 18.7656 73.1305 18.782 73.1393 18.7975C73.1623 18.8584 73.1698 18.9202 73.1618 18.9844L73.146 19.0406L73.1295 19.0993C73.1127 19.1409 73.0879 19.1747 73.0548 19.2027L73.0457 19.2103L73.038 19.2194C73.008 19.2547 72.9711 19.2805 72.9249 19.2971L72.9247 19.2967L72.9147 19.3012C72.87 19.3213 72.8257 19.3284 72.7791 19.3239L72.7674 19.3227L72.7556 19.3235C72.7107 19.3266 72.6679 19.3187 72.625 19.2985L72.6251 19.2983L72.6169 19.295L72.5615 19.2732L72.5082 19.2521C72.4478 19.2258 72.3979 19.188 72.3569 19.1372C72.3463 19.1185 72.335 19.0988 72.3239 19.0793C72.3145 19.0627 72.3051 19.0463 72.2963 19.0309C72.2733 18.9699 72.2659 18.9081 72.2738 18.8439C72.2775 18.8309 72.281 18.8181 72.2846 18.8053C72.2917 18.7797 72.2988 18.7544 72.306 18.7289C72.3228 18.6872 72.3476 18.6533 72.3808 18.6254L72.3899 18.6177L72.3976 18.6086C72.4275 18.5733 72.4644 18.5476 72.5107 18.5309L72.5108 18.5313L72.5209 18.5268C72.5657 18.5066 72.6101 18.4995 72.6562 18.5041L72.6681 18.5053L72.6801 18.5045C72.7252 18.5014 72.7679 18.5093 72.8108 18.5294Z" fill="#546DEF" stroke="#546DEF" stroke-width="0.284836"/>
</g>
</g>
<g id="Group_16">
<g id="Group_17">
<path id="Vector_10" d="M58.7429 10.1209C58.8528 10.0196 58.9686 9.92488 59.0904 9.8373L58.7429 10.1209ZM58.7429 10.1209L58.7409 10.1189L58.692 10.1677L58.643 10.2164L58.6428 10.2167L58.6452 10.2191C58.4983 10.3785 58.366 10.5499 58.249 10.7322L58.2462 10.7306C58.2462 10.7307 58.2461 10.7308 58.2461 10.7308L58.212 10.7891L58.1779 10.8475L58.1773 10.8486L58.1796 10.85C58.1265 10.9494 58.0779 11.0512 58.0339 11.1552L58.0339 11.1552C57.9511 11.3511 57.7232 11.4384 57.5146 11.3603C57.3289 11.2906 57.2315 11.0409 57.3129 10.8488L57.3129 10.8487C57.5859 10.2026 58.0385 9.62947 58.6073 9.21973L58.7429 10.1209ZM59.1642 9.2953C59.0192 9.12277 58.787 9.09036 58.6073 9.21971L59.1642 9.2953ZM59.1642 9.2953C59.2246 9.36763 59.2503 9.47166 59.2355 9.5791C59.2206 9.68676 59.1672 9.78204 59.0904 9.83728L59.1642 9.2953Z" fill="#546DEF" stroke="#546DEF" stroke-width="0.284836"/>
</g>
</g>
</g>
</g>
</svg>
