<!-- Generated by IcoMoon.io -->
<svg version="1.1" xmlns="http://www.w3.org/2000/svg" width="1024" height="1024" viewBox="0 0 1024 1024">
<g id="icomoon-ignore">
</g>
<path fill="#f5f5f5" d="M0 0h1024v1024h-1024v-1024z"></path>
<path fill="#fff" d="M-11866.353-19335.529h19456c864.943 0 1566.118 701.175 1566.118 1566.118v45778.824c0 864.943-701.175 1566.118-1566.118 1566.118h-19456c-864.943 0-1566.118-701.175-1566.118-1566.118v-45778.824c0-864.943 701.175-1566.118 1566.118-1566.118z"></path>
<path fill="#546def" d="M-11264-1325.176h18251.294c399.204 0 722.824 323.619 722.824 722.824v5782.588c0 399.204-323.619 722.824-722.824 722.824h-18251.294c-399.204 0-722.824-323.619-722.824-722.824v-5782.588c0-399.204 323.619-722.824 722.824-722.824z"></path>
<path fill="#fff" d="M-5933.176-361.412h7589.647c482.372 0 873.412 391.040 873.412 873.412s-391.040 873.412-873.412 873.412h-7589.647c-482.372 0-873.412-391.040-873.412-873.412s391.040-873.412 873.412-873.412z"></path>
<path fill="#546def" d="M833.253 893.512v100.394h-80.312v-100.394c0-55.332-45.056-100.388-100.394-100.388h-281.096c-55.336 0-100.392 45.056-100.392 100.388v100.394h-80.314v-100.394c0-99.629 81.077-180.706 180.706-180.706h281.096c99.629 0 180.706 81.077 180.706 180.706zM913.571 210.847v301.176h-80.318v-262.184l-80.312 40.156v101.557c0 132.879-108.062 240.942-240.941 240.942s-240.941-108.063-240.941-240.942v-101.557l-158.338-79.149 330.049-164.964c42.044-20.922 96.336-20.962 138.38 0l332.421 164.964zM292.342 210.847l186.368 93.164c19.275 9.638 47.265 9.638 66.58 0l186.37-93.164-186.37-93.164c-19.235-9.598-47.345-9.638-66.62 0l-186.328 93.164zM672.629 330.153l-91.399 45.699c-21.002 10.521-45.137 15.782-69.231 15.782s-48.188-5.261-69.23-15.782l-91.397-45.699v61.4c0 88.586 72.041 160.628 160.627 160.628s160.629-72.041 160.629-160.628v-61.4z"></path>
</svg>
