<svg width="33" height="34" viewBox="0 0 33 34" fill="none" xmlns="http://www.w3.org/2000/svg">
<path d="M5.93491 6.68224C5.96716 6.70612 5.99941 6.72999 6.03264 6.75459C6.69929 7.28611 7.16927 8.15751 7.28297 9.00006C7.30436 9.23684 7.29959 9.47486 7.29941 9.71242C7.29956 9.77348 7.2997 9.83454 7.29985 9.89746C7.30024 10.0664 7.30033 10.2353 7.30036 10.4043C7.30045 10.5867 7.30082 10.7691 7.30115 10.9516C7.3018 11.3502 7.3021 11.7488 7.30231 12.1475C7.30244 12.3966 7.30265 12.6456 7.30287 12.8947C7.30346 13.5849 7.30396 14.275 7.30412 14.9651C7.30414 15.0313 7.30414 15.0313 7.30415 15.0989C7.30417 15.1431 7.30418 15.1873 7.30419 15.2329C7.30421 15.3226 7.30423 15.4122 7.30425 15.5018C7.30427 15.5685 7.30427 15.5685 7.30429 15.6366C7.30448 16.3569 7.30532 17.0772 7.30645 17.7975C7.3076 18.5376 7.30821 19.2778 7.30826 20.0179C7.30831 20.4333 7.30858 20.8486 7.30947 21.2639C7.31021 21.6176 7.31046 21.9712 7.31006 22.3249C7.30987 22.5052 7.30991 22.6854 7.3106 22.8657C7.31133 23.0616 7.31093 23.2575 7.31042 23.4533C7.31101 23.5379 7.31101 23.5379 7.31161 23.6242C7.30659 24.4593 7.01339 25.2186 6.51678 25.8839C6.4904 25.9193 6.46402 25.9547 6.43685 25.9911C5.89739 26.6569 4.99547 27.1456 4.14081 27.2416C2.99951 27.3062 2.04625 27.0386 1.16346 26.2912C0.532343 25.7085 0.0649508 24.8103 0.0102115 23.9478C0.00665561 23.7875 0.00606778 23.6276 0.00658831 23.4673C0.00640282 23.4062 0.00621749 23.345 0.00602637 23.2821C0.00553046 23.1136 0.0056329 22.9452 0.00584103 22.7768C0.00596113 22.5947 0.00552296 22.4125 0.00516033 22.2304C0.00454341 21.874 0.00445514 21.5177 0.0045688 21.1613C0.00465541 20.8715 0.00456999 20.5816 0.00436385 20.2918C0.00433499 20.2505 0.00430628 20.2091 0.00427654 20.1666C0.00421778 20.0826 0.00415869 19.9987 0.00409971 19.9147C0.0035728 19.128 0.00367729 18.3413 0.00397319 17.5547C0.00422372 16.836 0.00367819 16.1173 0.00275608 15.3987C0.00181522 14.6597 0.00141617 13.9208 0.00159815 13.1818C0.00169069 12.7674 0.00157218 12.3529 0.000884904 11.9385C0.000305608 11.5856 0.000240721 11.2327 0.000826083 10.8798C0.00111052 10.7 0.00116791 10.5202 0.0005834 10.3404C-4.47708e-05 10.1449 0.000470117 9.9494 0.00108356 9.75389C0.00072599 9.6979 0.000368409 9.64191 0 9.58422C0.00644317 8.60246 0.354814 7.68761 1.0375 6.97317C2.45105 5.69244 4.39317 5.52827 5.93491 6.68224Z" fill="#FCFCFC"/>
<path d="M18.6297 0.790826C19.3694 1.42711 19.8731 2.23103 19.9874 3.21528C20.0063 3.57283 20.0012 3.93145 20.0007 4.28937C20.0009 4.39958 20.0012 4.50978 20.0015 4.61999C20.0022 4.92218 20.0023 5.22437 20.0022 5.52657C20.0023 5.81922 20.0028 6.11188 20.0033 6.40454C20.0045 7.1139 20.005 7.82327 20.0052 8.53263C20.0052 8.56934 20.0052 8.60604 20.0052 8.64386C20.0053 8.68065 20.0053 8.71743 20.0053 8.75533C20.0054 9.16353 20.0057 9.57172 20.0061 9.97992C20.007 11.2136 20.0078 12.4473 20.008 13.6809C20.008 13.7204 20.008 13.7598 20.008 13.8004C20.008 13.9602 20.008 14.12 20.008 14.2798C20.008 14.4001 20.008 14.5203 20.0081 14.6406C20.0081 14.7002 20.0081 14.7002 20.0081 14.761C20.0082 16.0092 20.0093 17.2573 20.011 18.5054C20.013 19.9087 20.0142 21.3121 20.0142 22.7154C20.0142 22.8652 20.0142 23.015 20.0142 23.1648C20.0142 23.2016 20.0142 23.2385 20.0142 23.2765C20.0143 23.8687 20.0151 24.4609 20.0162 25.0531C20.0173 25.6488 20.0175 26.2446 20.0168 26.8404C20.0165 27.1628 20.0165 27.4852 20.0176 27.8076C20.0186 28.1033 20.0185 28.3989 20.0175 28.6945C20.0173 28.801 20.0176 28.9075 20.0183 29.014C20.025 30.1179 19.8299 31.0068 19.1146 31.8724C19.0839 31.9125 19.0532 31.9526 19.0216 31.994C18.7723 32.2925 18.4445 32.5133 18.1015 32.6916C17.9964 32.7446 17.9964 32.7446 17.8918 32.8164C17.1112 33.2462 16.1349 33.2231 15.2971 33.0035C14.7972 32.8573 14.3699 32.5973 13.9748 32.2603C13.9348 32.2297 13.8949 32.199 13.8537 32.1675C13.5548 31.9184 13.3339 31.5903 13.1556 31.2471C13.1031 31.1429 13.1031 31.1429 13.0339 31.0428C12.668 30.3802 12.6794 29.593 12.6839 28.8589C12.6837 28.7482 12.6834 28.6375 12.683 28.5268C12.6822 28.225 12.6828 27.9232 12.6838 27.6214C12.6845 27.3286 12.684 27.0358 12.6836 26.743C12.6827 26.1079 12.6831 25.4727 12.6842 24.8375C12.6851 24.2818 12.6855 23.7261 12.6854 23.1704C12.6854 23.1335 12.6854 23.0965 12.6854 23.0585C12.6854 22.9085 12.6853 22.7585 12.6853 22.6085C12.6851 21.2034 12.6862 19.7983 12.6879 18.3932C12.6895 17.146 12.6901 15.8988 12.6898 14.6516C12.6897 14.5714 12.6897 14.4913 12.6897 14.4112C12.6897 14.3518 12.6897 14.3518 12.6897 14.2911C12.6896 14.0917 12.6896 13.8923 12.6895 13.6929C12.6895 13.6535 12.6895 13.6142 12.6895 13.5736C12.6893 12.53 12.6898 11.4863 12.6905 10.4426C12.6905 10.4055 12.6906 10.3683 12.6906 10.3301C12.6906 10.293 12.6906 10.2559 12.6907 10.2177C12.6907 10.1807 12.6907 10.1437 12.6907 10.1056C12.6908 10.0311 12.6908 9.9566 12.6909 9.88209C12.6912 9.36343 12.6914 8.84477 12.6913 8.32611C12.6912 7.65779 12.6916 6.98946 12.6928 6.32114C12.6934 5.99904 12.6937 5.67694 12.6935 5.35484C12.6932 5.05979 12.6936 4.76475 12.6946 4.4697C12.6948 4.36318 12.6948 4.25665 12.6945 4.15013C12.6916 2.94195 12.9174 1.93947 13.7899 1.04539C15.0952 -0.241474 17.1979 -0.355361 18.6297 0.790826Z" fill="#FBFBFB"/>
<path d="M31.3253 9.05542C31.3576 9.0793 31.3898 9.10318 31.4231 9.12778C32.1282 9.68999 32.5789 10.5935 32.683 11.4799C32.6896 11.6217 32.69 11.7633 32.6898 11.9052C32.69 11.9469 32.6901 11.9885 32.6903 12.0314C32.6907 12.1704 32.6908 12.3094 32.6909 12.4484C32.6911 12.5483 32.6913 12.6482 32.6916 12.7481C32.6922 13.0191 32.6925 13.2901 32.6927 13.5611C32.6929 13.7306 32.6931 13.9001 32.6933 14.0696C32.694 14.6003 32.6944 15.131 32.6946 15.6618C32.6948 16.2736 32.6957 16.8853 32.6971 17.4971C32.6981 17.9706 32.6986 18.4441 32.6987 18.9176C32.6987 19.2001 32.699 19.4826 32.6999 19.7652C32.7007 20.0311 32.7008 20.297 32.7004 20.5629C32.7003 20.6601 32.7006 20.7574 32.701 20.8547C32.7034 21.3542 32.6977 21.8135 32.5376 22.293C32.5199 22.3505 32.5022 22.408 32.484 22.4672C32.3407 22.8519 32.1516 23.1758 31.9072 23.5052C31.8833 23.5376 31.8593 23.5699 31.8347 23.6033C31.3899 24.1602 30.6594 24.5983 29.9676 24.7659C29.9094 24.7806 29.9094 24.7806 29.85 24.7956C28.8884 25.0051 27.8945 24.8233 27.0613 24.3053C26.4766 23.896 26.0633 23.4149 25.7491 22.7779C25.7288 22.7402 25.7086 22.7025 25.6877 22.6636C25.3688 22.0293 25.3885 21.3027 25.3908 20.612C25.3906 20.5132 25.3904 20.4143 25.3901 20.3155C25.3894 20.0491 25.3897 19.7827 25.3901 19.5163C25.3905 19.2364 25.3902 18.9564 25.3899 18.6764C25.3897 18.2065 25.39 17.7366 25.3907 17.2667C25.3915 16.7249 25.3912 16.183 25.3904 15.6411C25.3898 15.1743 25.3897 14.7075 25.3901 14.2406C25.3903 13.9625 25.3903 13.6844 25.3898 13.4062C25.3894 13.1447 25.3897 12.8832 25.3906 12.6217C25.3907 12.5262 25.3907 12.4307 25.3904 12.3352C25.3869 11.209 25.6169 10.2396 26.3954 9.37742C27.7654 8.03299 29.8018 7.91511 31.3253 9.05542Z" fill="#FBFBFC"/>
</svg>
